<?xml version="1.0" encoding="utf-8" standalone="no"?>
<!DOCTYPE svg PUBLIC "-//W3C//DTD SVG 1.1//EN"
  "http://www.w3.org/Graphics/SVG/1.1/DTD/svg11.dtd">
<!-- Created with matplotlib (https://matplotlib.org/) -->
<svg height="360pt" version="1.1" viewBox="0 0 639.36 360" width="639.36pt" xmlns="http://www.w3.org/2000/svg" xmlns:xlink="http://www.w3.org/1999/xlink">
 <metadata>
  <rdf:RDF xmlns:cc="http://creativecommons.org/ns#" xmlns:dc="http://purl.org/dc/elements/1.1/" xmlns:rdf="http://www.w3.org/1999/02/22-rdf-syntax-ns#">
   <cc:Work>
    <dc:type rdf:resource="http://purl.org/dc/dcmitype/StillImage"/>
    <dc:date>2021-04-07T15:11:17.359874</dc:date>
    <dc:format>image/svg+xml</dc:format>
    <dc:creator>
     <cc:Agent>
      <dc:title>Matplotlib v3.3.4, https://matplotlib.org/</dc:title>
     </cc:Agent>
    </dc:creator>
   </cc:Work>
  </rdf:RDF>
 </metadata>
 <defs>
  <style type="text/css">*{stroke-linecap:butt;stroke-linejoin:round;}</style>
 </defs>
 <g id="figure_1">
  <g id="patch_1">
   <path d="M 0 360 
L 639.36 360 
L 639.36 0 
L 0 0 
z
" style="fill:#ffffff;"/>
  </g>
  <g id="axes_1">
   <g id="patch_2">
    <path d="M 59.36058 143.44 
L 611.03835 143.44 
L 611.03835 25.44 
L 59.36058 25.44 
z
" style="fill:#ffffff;"/>
   </g>
   <g id="matplotlib.axis_1">
    <g id="xtick_1">
     <g id="line2d_1">
      <path clip-path="url(#pc0abd1eea1)" d="M 59.36058 143.44 
L 59.36058 25.44 
" style="fill:none;stroke:#b0b0b0;stroke-linecap:square;stroke-width:0.8;"/>
     </g>
     <g id="line2d_2">
      <defs>
       <path d="M 0 0 
L 0 3.5 
" id="ma6e22feafa" style="stroke:#000000;stroke-width:0.8;"/>
      </defs>
      <g>
       <use style="stroke:#000000;stroke-width:0.8;" x="59.36058" xlink:href="#ma6e22feafa" y="143.44"/>
      </g>
     </g>
     <g id="text_1">
      <!-- 0.0000 -->
      <g transform="translate(41.865268 158.038438)scale(0.1 -0.1)">
       <defs>
        <path d="M 31.78125 66.40625 
Q 24.171875 66.40625 20.328125 58.90625 
Q 16.5 51.421875 16.5 36.375 
Q 16.5 21.390625 20.328125 13.890625 
Q 24.171875 6.390625 31.78125 6.390625 
Q 39.453125 6.390625 43.28125 13.890625 
Q 47.125 21.390625 47.125 36.375 
Q 47.125 51.421875 43.28125 58.90625 
Q 39.453125 66.40625 31.78125 66.40625 
z
M 31.78125 74.21875 
Q 44.046875 74.21875 50.515625 64.515625 
Q 56.984375 54.828125 56.984375 36.375 
Q 56.984375 17.96875 50.515625 8.265625 
Q 44.046875 -1.421875 31.78125 -1.421875 
Q 19.53125 -1.421875 13.0625 8.265625 
Q 6.59375 17.96875 6.59375 36.375 
Q 6.59375 54.828125 13.0625 64.515625 
Q 19.53125 74.21875 31.78125 74.21875 
z
" id="DejaVuSans-48"/>
        <path d="M 10.6875 12.40625 
L 21 12.40625 
L 21 0 
L 10.6875 0 
z
" id="DejaVuSans-46"/>
       </defs>
       <use xlink:href="#DejaVuSans-48"/>
       <use x="63.623047" xlink:href="#DejaVuSans-46"/>
       <use x="95.410156" xlink:href="#DejaVuSans-48"/>
       <use x="159.033203" xlink:href="#DejaVuSans-48"/>
       <use x="222.65625" xlink:href="#DejaVuSans-48"/>
       <use x="286.279297" xlink:href="#DejaVuSans-48"/>
      </g>
     </g>
    </g>
    <g id="xtick_2">
     <g id="line2d_3">
      <path clip-path="url(#pc0abd1eea1)" d="M 169.696134 143.44 
L 169.696134 25.44 
" style="fill:none;stroke:#b0b0b0;stroke-linecap:square;stroke-width:0.8;"/>
     </g>
     <g id="line2d_4">
      <g>
       <use style="stroke:#000000;stroke-width:0.8;" x="169.696134" xlink:href="#ma6e22feafa" y="143.44"/>
      </g>
     </g>
     <g id="text_2">
      <!-- 0.0002 -->
      <g transform="translate(152.200822 158.038438)scale(0.1 -0.1)">
       <defs>
        <path d="M 19.1875 8.296875 
L 53.609375 8.296875 
L 53.609375 0 
L 7.328125 0 
L 7.328125 8.296875 
Q 12.9375 14.109375 22.625 23.890625 
Q 32.328125 33.6875 34.8125 36.53125 
Q 39.546875 41.84375 41.421875 45.53125 
Q 43.3125 49.21875 43.3125 52.78125 
Q 43.3125 58.59375 39.234375 62.25 
Q 35.15625 65.921875 28.609375 65.921875 
Q 23.96875 65.921875 18.8125 64.3125 
Q 13.671875 62.703125 7.8125 59.421875 
L 7.8125 69.390625 
Q 13.765625 71.78125 18.9375 73 
Q 24.125 74.21875 28.421875 74.21875 
Q 39.75 74.21875 46.484375 68.546875 
Q 53.21875 62.890625 53.21875 53.421875 
Q 53.21875 48.921875 51.53125 44.890625 
Q 49.859375 40.875 45.40625 35.40625 
Q 44.1875 33.984375 37.640625 27.21875 
Q 31.109375 20.453125 19.1875 8.296875 
z
" id="DejaVuSans-50"/>
       </defs>
       <use xlink:href="#DejaVuSans-48"/>
       <use x="63.623047" xlink:href="#DejaVuSans-46"/>
       <use x="95.410156" xlink:href="#DejaVuSans-48"/>
       <use x="159.033203" xlink:href="#DejaVuSans-48"/>
       <use x="222.65625" xlink:href="#DejaVuSans-48"/>
       <use x="286.279297" xlink:href="#DejaVuSans-50"/>
      </g>
     </g>
    </g>
    <g id="xtick_3">
     <g id="line2d_5">
      <path clip-path="url(#pc0abd1eea1)" d="M 280.031688 143.44 
L 280.031688 25.44 
" style="fill:none;stroke:#b0b0b0;stroke-linecap:square;stroke-width:0.8;"/>
     </g>
     <g id="line2d_6">
      <g>
       <use style="stroke:#000000;stroke-width:0.8;" x="280.031688" xlink:href="#ma6e22feafa" y="143.44"/>
      </g>
     </g>
     <g id="text_3">
      <!-- 0.0004 -->
      <g transform="translate(262.536376 158.038438)scale(0.1 -0.1)">
       <defs>
        <path d="M 37.796875 64.3125 
L 12.890625 25.390625 
L 37.796875 25.390625 
z
M 35.203125 72.90625 
L 47.609375 72.90625 
L 47.609375 25.390625 
L 58.015625 25.390625 
L 58.015625 17.1875 
L 47.609375 17.1875 
L 47.609375 0 
L 37.796875 0 
L 37.796875 17.1875 
L 4.890625 17.1875 
L 4.890625 26.703125 
z
" id="DejaVuSans-52"/>
       </defs>
       <use xlink:href="#DejaVuSans-48"/>
       <use x="63.623047" xlink:href="#DejaVuSans-46"/>
       <use x="95.410156" xlink:href="#DejaVuSans-48"/>
       <use x="159.033203" xlink:href="#DejaVuSans-48"/>
       <use x="222.65625" xlink:href="#DejaVuSans-48"/>
       <use x="286.279297" xlink:href="#DejaVuSans-52"/>
      </g>
     </g>
    </g>
    <g id="xtick_4">
     <g id="line2d_7">
      <path clip-path="url(#pc0abd1eea1)" d="M 390.367242 143.44 
L 390.367242 25.44 
" style="fill:none;stroke:#b0b0b0;stroke-linecap:square;stroke-width:0.8;"/>
     </g>
     <g id="line2d_8">
      <g>
       <use style="stroke:#000000;stroke-width:0.8;" x="390.367242" xlink:href="#ma6e22feafa" y="143.44"/>
      </g>
     </g>
     <g id="text_4">
      <!-- 0.0006 -->
      <g transform="translate(372.87193 158.038438)scale(0.1 -0.1)">
       <defs>
        <path d="M 33.015625 40.375 
Q 26.375 40.375 22.484375 35.828125 
Q 18.609375 31.296875 18.609375 23.390625 
Q 18.609375 15.53125 22.484375 10.953125 
Q 26.375 6.390625 33.015625 6.390625 
Q 39.65625 6.390625 43.53125 10.953125 
Q 47.40625 15.53125 47.40625 23.390625 
Q 47.40625 31.296875 43.53125 35.828125 
Q 39.65625 40.375 33.015625 40.375 
z
M 52.59375 71.296875 
L 52.59375 62.3125 
Q 48.875 64.0625 45.09375 64.984375 
Q 41.3125 65.921875 37.59375 65.921875 
Q 27.828125 65.921875 22.671875 59.328125 
Q 17.53125 52.734375 16.796875 39.40625 
Q 19.671875 43.65625 24.015625 45.921875 
Q 28.375 48.1875 33.59375 48.1875 
Q 44.578125 48.1875 50.953125 41.515625 
Q 57.328125 34.859375 57.328125 23.390625 
Q 57.328125 12.15625 50.6875 5.359375 
Q 44.046875 -1.421875 33.015625 -1.421875 
Q 20.359375 -1.421875 13.671875 8.265625 
Q 6.984375 17.96875 6.984375 36.375 
Q 6.984375 53.65625 15.1875 63.9375 
Q 23.390625 74.21875 37.203125 74.21875 
Q 40.921875 74.21875 44.703125 73.484375 
Q 48.484375 72.75 52.59375 71.296875 
z
" id="DejaVuSans-54"/>
       </defs>
       <use xlink:href="#DejaVuSans-48"/>
       <use x="63.623047" xlink:href="#DejaVuSans-46"/>
       <use x="95.410156" xlink:href="#DejaVuSans-48"/>
       <use x="159.033203" xlink:href="#DejaVuSans-48"/>
       <use x="222.65625" xlink:href="#DejaVuSans-48"/>
       <use x="286.279297" xlink:href="#DejaVuSans-54"/>
      </g>
     </g>
    </g>
    <g id="xtick_5">
     <g id="line2d_9">
      <path clip-path="url(#pc0abd1eea1)" d="M 500.702796 143.44 
L 500.702796 25.44 
" style="fill:none;stroke:#b0b0b0;stroke-linecap:square;stroke-width:0.8;"/>
     </g>
     <g id="line2d_10">
      <g>
       <use style="stroke:#000000;stroke-width:0.8;" x="500.702796" xlink:href="#ma6e22feafa" y="143.44"/>
      </g>
     </g>
     <g id="text_5">
      <!-- 0.0008 -->
      <g transform="translate(483.207484 158.038438)scale(0.1 -0.1)">
       <defs>
        <path d="M 31.78125 34.625 
Q 24.75 34.625 20.71875 30.859375 
Q 16.703125 27.09375 16.703125 20.515625 
Q 16.703125 13.921875 20.71875 10.15625 
Q 24.75 6.390625 31.78125 6.390625 
Q 38.8125 6.390625 42.859375 10.171875 
Q 46.921875 13.96875 46.921875 20.515625 
Q 46.921875 27.09375 42.890625 30.859375 
Q 38.875 34.625 31.78125 34.625 
z
M 21.921875 38.8125 
Q 15.578125 40.375 12.03125 44.71875 
Q 8.5 49.078125 8.5 55.328125 
Q 8.5 64.0625 14.71875 69.140625 
Q 20.953125 74.21875 31.78125 74.21875 
Q 42.671875 74.21875 48.875 69.140625 
Q 55.078125 64.0625 55.078125 55.328125 
Q 55.078125 49.078125 51.53125 44.71875 
Q 48 40.375 41.703125 38.8125 
Q 48.828125 37.15625 52.796875 32.3125 
Q 56.78125 27.484375 56.78125 20.515625 
Q 56.78125 9.90625 50.3125 4.234375 
Q 43.84375 -1.421875 31.78125 -1.421875 
Q 19.734375 -1.421875 13.25 4.234375 
Q 6.78125 9.90625 6.78125 20.515625 
Q 6.78125 27.484375 10.78125 32.3125 
Q 14.796875 37.15625 21.921875 38.8125 
z
M 18.3125 54.390625 
Q 18.3125 48.734375 21.84375 45.5625 
Q 25.390625 42.390625 31.78125 42.390625 
Q 38.140625 42.390625 41.71875 45.5625 
Q 45.3125 48.734375 45.3125 54.390625 
Q 45.3125 60.0625 41.71875 63.234375 
Q 38.140625 66.40625 31.78125 66.40625 
Q 25.390625 66.40625 21.84375 63.234375 
Q 18.3125 60.0625 18.3125 54.390625 
z
" id="DejaVuSans-56"/>
       </defs>
       <use xlink:href="#DejaVuSans-48"/>
       <use x="63.623047" xlink:href="#DejaVuSans-46"/>
       <use x="95.410156" xlink:href="#DejaVuSans-48"/>
       <use x="159.033203" xlink:href="#DejaVuSans-48"/>
       <use x="222.65625" xlink:href="#DejaVuSans-48"/>
       <use x="286.279297" xlink:href="#DejaVuSans-56"/>
      </g>
     </g>
    </g>
    <g id="xtick_6">
     <g id="line2d_11">
      <path clip-path="url(#pc0abd1eea1)" d="M 611.03835 143.44 
L 611.03835 25.44 
" style="fill:none;stroke:#b0b0b0;stroke-linecap:square;stroke-width:0.8;"/>
     </g>
     <g id="line2d_12">
      <g>
       <use style="stroke:#000000;stroke-width:0.8;" x="611.03835" xlink:href="#ma6e22feafa" y="143.44"/>
      </g>
     </g>
     <g id="text_6">
      <!-- 0.0010 -->
      <g transform="translate(593.543038 158.038438)scale(0.1 -0.1)">
       <defs>
        <path d="M 12.40625 8.296875 
L 28.515625 8.296875 
L 28.515625 63.921875 
L 10.984375 60.40625 
L 10.984375 69.390625 
L 28.421875 72.90625 
L 38.28125 72.90625 
L 38.28125 8.296875 
L 54.390625 8.296875 
L 54.390625 0 
L 12.40625 0 
z
" id="DejaVuSans-49"/>
       </defs>
       <use xlink:href="#DejaVuSans-48"/>
       <use x="63.623047" xlink:href="#DejaVuSans-46"/>
       <use x="95.410156" xlink:href="#DejaVuSans-48"/>
       <use x="159.033203" xlink:href="#DejaVuSans-48"/>
       <use x="222.65625" xlink:href="#DejaVuSans-49"/>
       <use x="286.279297" xlink:href="#DejaVuSans-48"/>
      </g>
     </g>
    </g>
    <g id="text_7">
     <!-- Tid [us] -->
     <g transform="translate(316.474465 171.716563)scale(0.1 -0.1)">
      <defs>
       <path d="M -0.296875 72.90625 
L 61.375 72.90625 
L 61.375 64.59375 
L 35.5 64.59375 
L 35.5 0 
L 25.59375 0 
L 25.59375 64.59375 
L -0.296875 64.59375 
z
" id="DejaVuSans-84"/>
       <path d="M 9.421875 54.6875 
L 18.40625 54.6875 
L 18.40625 0 
L 9.421875 0 
z
M 9.421875 75.984375 
L 18.40625 75.984375 
L 18.40625 64.59375 
L 9.421875 64.59375 
z
" id="DejaVuSans-105"/>
       <path d="M 45.40625 46.390625 
L 45.40625 75.984375 
L 54.390625 75.984375 
L 54.390625 0 
L 45.40625 0 
L 45.40625 8.203125 
Q 42.578125 3.328125 38.25 0.953125 
Q 33.9375 -1.421875 27.875 -1.421875 
Q 17.96875 -1.421875 11.734375 6.484375 
Q 5.515625 14.40625 5.515625 27.296875 
Q 5.515625 40.1875 11.734375 48.09375 
Q 17.96875 56 27.875 56 
Q 33.9375 56 38.25 53.625 
Q 42.578125 51.265625 45.40625 46.390625 
z
M 14.796875 27.296875 
Q 14.796875 17.390625 18.875 11.75 
Q 22.953125 6.109375 30.078125 6.109375 
Q 37.203125 6.109375 41.296875 11.75 
Q 45.40625 17.390625 45.40625 27.296875 
Q 45.40625 37.203125 41.296875 42.84375 
Q 37.203125 48.484375 30.078125 48.484375 
Q 22.953125 48.484375 18.875 42.84375 
Q 14.796875 37.203125 14.796875 27.296875 
z
" id="DejaVuSans-100"/>
       <path id="DejaVuSans-32"/>
       <path d="M 8.59375 75.984375 
L 29.296875 75.984375 
L 29.296875 69 
L 17.578125 69 
L 17.578125 -6.203125 
L 29.296875 -6.203125 
L 29.296875 -13.1875 
L 8.59375 -13.1875 
z
" id="DejaVuSans-91"/>
       <path d="M 8.5 21.578125 
L 8.5 54.6875 
L 17.484375 54.6875 
L 17.484375 21.921875 
Q 17.484375 14.15625 20.5 10.265625 
Q 23.53125 6.390625 29.59375 6.390625 
Q 36.859375 6.390625 41.078125 11.03125 
Q 45.3125 15.671875 45.3125 23.6875 
L 45.3125 54.6875 
L 54.296875 54.6875 
L 54.296875 0 
L 45.3125 0 
L 45.3125 8.40625 
Q 42.046875 3.421875 37.71875 1 
Q 33.40625 -1.421875 27.6875 -1.421875 
Q 18.265625 -1.421875 13.375 4.4375 
Q 8.5 10.296875 8.5 21.578125 
z
M 31.109375 56 
z
" id="DejaVuSans-117"/>
       <path d="M 44.28125 53.078125 
L 44.28125 44.578125 
Q 40.484375 46.53125 36.375 47.5 
Q 32.28125 48.484375 27.875 48.484375 
Q 21.1875 48.484375 17.84375 46.4375 
Q 14.5 44.390625 14.5 40.28125 
Q 14.5 37.15625 16.890625 35.375 
Q 19.28125 33.59375 26.515625 31.984375 
L 29.59375 31.296875 
Q 39.15625 29.25 43.1875 25.515625 
Q 47.21875 21.78125 47.21875 15.09375 
Q 47.21875 7.46875 41.1875 3.015625 
Q 35.15625 -1.421875 24.609375 -1.421875 
Q 20.21875 -1.421875 15.453125 -0.5625 
Q 10.6875 0.296875 5.421875 2 
L 5.421875 11.28125 
Q 10.40625 8.6875 15.234375 7.390625 
Q 20.0625 6.109375 24.8125 6.109375 
Q 31.15625 6.109375 34.5625 8.28125 
Q 37.984375 10.453125 37.984375 14.40625 
Q 37.984375 18.0625 35.515625 20.015625 
Q 33.0625 21.96875 24.703125 23.78125 
L 21.578125 24.515625 
Q 13.234375 26.265625 9.515625 29.90625 
Q 5.8125 33.546875 5.8125 39.890625 
Q 5.8125 47.609375 11.28125 51.796875 
Q 16.75 56 26.8125 56 
Q 31.78125 56 36.171875 55.265625 
Q 40.578125 54.546875 44.28125 53.078125 
z
" id="DejaVuSans-115"/>
       <path d="M 30.421875 75.984375 
L 30.421875 -13.1875 
L 9.71875 -13.1875 
L 9.71875 -6.203125 
L 21.390625 -6.203125 
L 21.390625 69 
L 9.71875 69 
L 9.71875 75.984375 
z
" id="DejaVuSans-93"/>
      </defs>
      <use xlink:href="#DejaVuSans-84"/>
      <use x="57.958984" xlink:href="#DejaVuSans-105"/>
      <use x="85.742188" xlink:href="#DejaVuSans-100"/>
      <use x="149.21875" xlink:href="#DejaVuSans-32"/>
      <use x="181.005859" xlink:href="#DejaVuSans-91"/>
      <use x="220.019531" xlink:href="#DejaVuSans-117"/>
      <use x="283.398438" xlink:href="#DejaVuSans-115"/>
      <use x="335.498047" xlink:href="#DejaVuSans-93"/>
     </g>
    </g>
   </g>
   <g id="matplotlib.axis_2">
    <g id="ytick_1">
     <g id="line2d_13">
      <path clip-path="url(#pc0abd1eea1)" d="M 59.36058 139.079744 
L 611.03835 139.079744 
" style="fill:none;stroke:#b0b0b0;stroke-linecap:square;stroke-width:0.8;"/>
     </g>
     <g id="line2d_14">
      <defs>
       <path d="M 0 0 
L -3.5 0 
" id="m9373405ce0" style="stroke:#000000;stroke-width:0.8;"/>
      </defs>
      <g>
       <use style="stroke:#000000;stroke-width:0.8;" x="59.36058" xlink:href="#m9373405ce0" y="139.079744"/>
      </g>
     </g>
     <g id="text_8">
      <!-- −0.4 -->
      <g transform="translate(28.077768 142.878963)scale(0.1 -0.1)">
       <defs>
        <path d="M 10.59375 35.5 
L 73.1875 35.5 
L 73.1875 27.203125 
L 10.59375 27.203125 
z
" id="DejaVuSans-8722"/>
       </defs>
       <use xlink:href="#DejaVuSans-8722"/>
       <use x="83.789062" xlink:href="#DejaVuSans-48"/>
       <use x="147.412109" xlink:href="#DejaVuSans-46"/>
       <use x="179.199219" xlink:href="#DejaVuSans-52"/>
      </g>
     </g>
    </g>
    <g id="ytick_2">
     <g id="line2d_15">
      <path clip-path="url(#pc0abd1eea1)" d="M 59.36058 111.774449 
L 611.03835 111.774449 
" style="fill:none;stroke:#b0b0b0;stroke-linecap:square;stroke-width:0.8;"/>
     </g>
     <g id="line2d_16">
      <g>
       <use style="stroke:#000000;stroke-width:0.8;" x="59.36058" xlink:href="#m9373405ce0" y="111.774449"/>
      </g>
     </g>
     <g id="text_9">
      <!-- −0.2 -->
      <g transform="translate(28.077768 115.573668)scale(0.1 -0.1)">
       <use xlink:href="#DejaVuSans-8722"/>
       <use x="83.789062" xlink:href="#DejaVuSans-48"/>
       <use x="147.412109" xlink:href="#DejaVuSans-46"/>
       <use x="179.199219" xlink:href="#DejaVuSans-50"/>
      </g>
     </g>
    </g>
    <g id="ytick_3">
     <g id="line2d_17">
      <path clip-path="url(#pc0abd1eea1)" d="M 59.36058 84.469153 
L 611.03835 84.469153 
" style="fill:none;stroke:#b0b0b0;stroke-linecap:square;stroke-width:0.8;"/>
     </g>
     <g id="line2d_18">
      <g>
       <use style="stroke:#000000;stroke-width:0.8;" x="59.36058" xlink:href="#m9373405ce0" y="84.469153"/>
      </g>
     </g>
     <g id="text_10">
      <!-- 0.0 -->
      <g transform="translate(36.457455 88.268372)scale(0.1 -0.1)">
       <use xlink:href="#DejaVuSans-48"/>
       <use x="63.623047" xlink:href="#DejaVuSans-46"/>
       <use x="95.410156" xlink:href="#DejaVuSans-48"/>
      </g>
     </g>
    </g>
    <g id="ytick_4">
     <g id="line2d_19">
      <path clip-path="url(#pc0abd1eea1)" d="M 59.36058 57.163858 
L 611.03835 57.163858 
" style="fill:none;stroke:#b0b0b0;stroke-linecap:square;stroke-width:0.8;"/>
     </g>
     <g id="line2d_20">
      <g>
       <use style="stroke:#000000;stroke-width:0.8;" x="59.36058" xlink:href="#m9373405ce0" y="57.163858"/>
      </g>
     </g>
     <g id="text_11">
      <!-- 0.2 -->
      <g transform="translate(36.457455 60.963077)scale(0.1 -0.1)">
       <use xlink:href="#DejaVuSans-48"/>
       <use x="63.623047" xlink:href="#DejaVuSans-46"/>
       <use x="95.410156" xlink:href="#DejaVuSans-50"/>
      </g>
     </g>
    </g>
    <g id="ytick_5">
     <g id="line2d_21">
      <path clip-path="url(#pc0abd1eea1)" d="M 59.36058 29.858563 
L 611.03835 29.858563 
" style="fill:none;stroke:#b0b0b0;stroke-linecap:square;stroke-width:0.8;"/>
     </g>
     <g id="line2d_22">
      <g>
       <use style="stroke:#000000;stroke-width:0.8;" x="59.36058" xlink:href="#m9373405ce0" y="29.858563"/>
      </g>
     </g>
     <g id="text_12">
      <!-- 0.4 -->
      <g transform="translate(36.457455 33.657781)scale(0.1 -0.1)">
       <use xlink:href="#DejaVuSans-48"/>
       <use x="63.623047" xlink:href="#DejaVuSans-46"/>
       <use x="95.410156" xlink:href="#DejaVuSans-52"/>
      </g>
     </g>
    </g>
    <g id="text_13">
     <!-- Spenning -->
     <g transform="translate(21.99808 107.934531)rotate(-90)scale(0.1 -0.1)">
      <defs>
       <path d="M 53.515625 70.515625 
L 53.515625 60.890625 
Q 47.90625 63.578125 42.921875 64.890625 
Q 37.9375 66.21875 33.296875 66.21875 
Q 25.25 66.21875 20.875 63.09375 
Q 16.5 59.96875 16.5 54.203125 
Q 16.5 49.359375 19.40625 46.890625 
Q 22.3125 44.4375 30.421875 42.921875 
L 36.375 41.703125 
Q 47.40625 39.59375 52.65625 34.296875 
Q 57.90625 29 57.90625 20.125 
Q 57.90625 9.515625 50.796875 4.046875 
Q 43.703125 -1.421875 29.984375 -1.421875 
Q 24.8125 -1.421875 18.96875 -0.25 
Q 13.140625 0.921875 6.890625 3.21875 
L 6.890625 13.375 
Q 12.890625 10.015625 18.65625 8.296875 
Q 24.421875 6.59375 29.984375 6.59375 
Q 38.421875 6.59375 43.015625 9.90625 
Q 47.609375 13.234375 47.609375 19.390625 
Q 47.609375 24.75 44.3125 27.78125 
Q 41.015625 30.8125 33.5 32.328125 
L 27.484375 33.5 
Q 16.453125 35.6875 11.515625 40.375 
Q 6.59375 45.0625 6.59375 53.421875 
Q 6.59375 63.09375 13.40625 68.65625 
Q 20.21875 74.21875 32.171875 74.21875 
Q 37.3125 74.21875 42.625 73.28125 
Q 47.953125 72.359375 53.515625 70.515625 
z
" id="DejaVuSans-83"/>
       <path d="M 18.109375 8.203125 
L 18.109375 -20.796875 
L 9.078125 -20.796875 
L 9.078125 54.6875 
L 18.109375 54.6875 
L 18.109375 46.390625 
Q 20.953125 51.265625 25.265625 53.625 
Q 29.59375 56 35.59375 56 
Q 45.5625 56 51.78125 48.09375 
Q 58.015625 40.1875 58.015625 27.296875 
Q 58.015625 14.40625 51.78125 6.484375 
Q 45.5625 -1.421875 35.59375 -1.421875 
Q 29.59375 -1.421875 25.265625 0.953125 
Q 20.953125 3.328125 18.109375 8.203125 
z
M 48.6875 27.296875 
Q 48.6875 37.203125 44.609375 42.84375 
Q 40.53125 48.484375 33.40625 48.484375 
Q 26.265625 48.484375 22.1875 42.84375 
Q 18.109375 37.203125 18.109375 27.296875 
Q 18.109375 17.390625 22.1875 11.75 
Q 26.265625 6.109375 33.40625 6.109375 
Q 40.53125 6.109375 44.609375 11.75 
Q 48.6875 17.390625 48.6875 27.296875 
z
" id="DejaVuSans-112"/>
       <path d="M 56.203125 29.59375 
L 56.203125 25.203125 
L 14.890625 25.203125 
Q 15.484375 15.921875 20.484375 11.0625 
Q 25.484375 6.203125 34.421875 6.203125 
Q 39.59375 6.203125 44.453125 7.46875 
Q 49.3125 8.734375 54.109375 11.28125 
L 54.109375 2.78125 
Q 49.265625 0.734375 44.1875 -0.34375 
Q 39.109375 -1.421875 33.890625 -1.421875 
Q 20.796875 -1.421875 13.15625 6.1875 
Q 5.515625 13.8125 5.515625 26.8125 
Q 5.515625 40.234375 12.765625 48.109375 
Q 20.015625 56 32.328125 56 
Q 43.359375 56 49.78125 48.890625 
Q 56.203125 41.796875 56.203125 29.59375 
z
M 47.21875 32.234375 
Q 47.125 39.59375 43.09375 43.984375 
Q 39.0625 48.390625 32.421875 48.390625 
Q 24.90625 48.390625 20.390625 44.140625 
Q 15.875 39.890625 15.1875 32.171875 
z
" id="DejaVuSans-101"/>
       <path d="M 54.890625 33.015625 
L 54.890625 0 
L 45.90625 0 
L 45.90625 32.71875 
Q 45.90625 40.484375 42.875 44.328125 
Q 39.84375 48.1875 33.796875 48.1875 
Q 26.515625 48.1875 22.3125 43.546875 
Q 18.109375 38.921875 18.109375 30.90625 
L 18.109375 0 
L 9.078125 0 
L 9.078125 54.6875 
L 18.109375 54.6875 
L 18.109375 46.1875 
Q 21.34375 51.125 25.703125 53.5625 
Q 30.078125 56 35.796875 56 
Q 45.21875 56 50.046875 50.171875 
Q 54.890625 44.34375 54.890625 33.015625 
z
" id="DejaVuSans-110"/>
       <path d="M 45.40625 27.984375 
Q 45.40625 37.75 41.375 43.109375 
Q 37.359375 48.484375 30.078125 48.484375 
Q 22.859375 48.484375 18.828125 43.109375 
Q 14.796875 37.75 14.796875 27.984375 
Q 14.796875 18.265625 18.828125 12.890625 
Q 22.859375 7.515625 30.078125 7.515625 
Q 37.359375 7.515625 41.375 12.890625 
Q 45.40625 18.265625 45.40625 27.984375 
z
M 54.390625 6.78125 
Q 54.390625 -7.171875 48.1875 -13.984375 
Q 42 -20.796875 29.203125 -20.796875 
Q 24.46875 -20.796875 20.265625 -20.09375 
Q 16.0625 -19.390625 12.109375 -17.921875 
L 12.109375 -9.1875 
Q 16.0625 -11.328125 19.921875 -12.34375 
Q 23.78125 -13.375 27.78125 -13.375 
Q 36.625 -13.375 41.015625 -8.765625 
Q 45.40625 -4.15625 45.40625 5.171875 
L 45.40625 9.625 
Q 42.625 4.78125 38.28125 2.390625 
Q 33.9375 0 27.875 0 
Q 17.828125 0 11.671875 7.65625 
Q 5.515625 15.328125 5.515625 27.984375 
Q 5.515625 40.671875 11.671875 48.328125 
Q 17.828125 56 27.875 56 
Q 33.9375 56 38.28125 53.609375 
Q 42.625 51.21875 45.40625 46.390625 
L 45.40625 54.6875 
L 54.390625 54.6875 
z
" id="DejaVuSans-103"/>
      </defs>
      <use xlink:href="#DejaVuSans-83"/>
      <use x="63.476562" xlink:href="#DejaVuSans-112"/>
      <use x="126.953125" xlink:href="#DejaVuSans-101"/>
      <use x="188.476562" xlink:href="#DejaVuSans-110"/>
      <use x="251.855469" xlink:href="#DejaVuSans-110"/>
      <use x="315.234375" xlink:href="#DejaVuSans-105"/>
      <use x="343.017578" xlink:href="#DejaVuSans-110"/>
      <use x="406.396484" xlink:href="#DejaVuSans-103"/>
     </g>
    </g>
   </g>
   <g id="line2d_23">
    <path clip-path="url(#pc0abd1eea1)" d="M 59.36058 60.047124 
L 77.015399 136.706899 
L 94.670217 41.617627 
L 112.325036 87.049347 
L 129.979854 124.265359 
L 147.634673 31.494822 
L 165.289491 112.242546 
L 182.94431 101.996491 
L 200.599128 34.173217 
L 218.253947 130.927832 
L 235.908765 76.271059 
L 253.563584 49.445563 
L 271.218403 138.076364 
L 288.873221 50.823758 
L 306.52804 73.639517 
L 324.182858 132.463308 
L 341.837677 34.915178 
L 359.492495 100.185955 
L 377.147314 113.896711 
L 394.802132 31.137511 
L 412.456951 122.455761 
L 430.11177 88.713299 
L 447.766588 40.582223 
L 465.421407 136.222172 
L 483.076225 62.246023 
L 500.731044 60.974476 
L 518.385862 136.697516 
L 536.040681 41.720442 
L 553.695499 86.879478 
L 571.350318 124.324201 
L 589.005136 31.393197 
L 606.659955 112.467352 
L 624.314774 101.809007 
" style="fill:none;stroke:#1f77b4;stroke-linecap:square;stroke-width:1.5;"/>
   </g>
   <g id="line2d_24">
    <path clip-path="url(#pc0abd1eea1)" d="M 59.36058 67.241233 
L 77.015399 121.13639 
L 94.670217 54.343927 
L 112.325036 86.276119 
L 129.979854 112.363975 
L 147.634673 47.317973 
L 165.289491 103.971339 
L 182.94431 96.729118 
L 200.599128 49.259511 
L 218.253947 117.061042 
L 235.908765 78.76796 
L 253.563584 59.930174 
L 271.218403 122.081629 
L 288.873221 60.848182 
L 306.52804 76.759332 
L 324.182858 118.139127 
L 341.837677 49.665599 
L 359.492495 95.478424 
L 377.147314 105.105881 
L 394.802132 47.081239 
L 412.456951 111.123901 
L 430.11177 87.450902 
L 447.766588 53.789148 
L 465.421407 120.767082 
L 483.076225 68.973632 
L 500.731044 67.883894 
L 518.385862 121.116332 
L 536.040681 54.435959 
L 553.695499 86.130604 
L 571.350318 112.411724 
L 589.005136 47.23026 
L 606.659955 104.098704 
L 624.314774 96.624547 
" style="fill:none;stroke:#ff7f0e;stroke-linecap:square;stroke-width:1.5;"/>
   </g>
   <g id="line2d_25">
    <path clip-path="url(#pc0abd1eea1)" d="M 59.36058 74.863744 
L 77.015399 104.894381 
L 94.670217 67.731905 
L 112.325036 85.464612 
L 129.979854 100.024511 
L 147.634673 63.802682 
L 165.289491 95.328618 
L 182.94431 91.323644 
L 200.599128 64.807273 
L 218.253947 102.622877 
L 235.908765 81.293389 
L 253.563584 70.776159 
L 271.218403 105.415788 
L 288.873221 71.33427 
L 306.52804 80.17382 
L 324.182858 103.21069 
L 341.837677 65.110633 
L 359.492495 90.599234 
L 377.147314 95.977363 
L 394.802132 63.61938 
L 412.456951 99.320766 
L 430.11177 86.15051 
L 447.766588 67.323823 
L 465.421407 104.707677 
L 483.076225 75.863169 
L 500.731044 75.187556 
L 518.385862 104.897992 
L 536.040681 67.779351 
L 553.695499 85.409705 
L 571.350318 100.028746 
L 589.005136 63.728119 
L 606.659955 95.425261 
L 624.314774 91.235836 
" style="fill:none;stroke:#2ca02c;stroke-linecap:square;stroke-width:1.5;"/>
   </g>
   <g id="line2d_26">
    <path clip-path="url(#pc0abd1eea1)" d="M 59.36058 84.126996 
L 77.015399 85.160235 
L 94.670217 83.860385 
L 112.325036 84.527024 
L 129.979854 85.026784 
L 147.634673 83.727197 
L 165.289491 84.860267 
L 182.94431 84.726749 
L 200.599128 83.760697 
L 218.253947 85.126725 
L 235.908765 84.360189 
L 253.563584 83.960783 
L 271.218403 85.226467 
L 288.873221 83.993794 
L 306.52804 84.294043 
L 324.182858 85.159605 
L 341.837677 83.760826 
L 359.492495 84.693743 
L 377.147314 84.892933 
L 394.802132 83.694495 
L 412.456951 85.026631 
L 430.11177 84.526506 
L 447.766588 83.827997 
L 465.421407 85.226156 
L 483.076225 84.160302 
L 500.731044 84.127876 
L 518.385862 85.225804 
L 536.040681 83.86089 
L 553.695499 84.494152 
L 571.350318 85.059046 
L 589.005136 83.728105 
L 606.659955 84.860161 
L 624.314774 84.725977 
" style="fill:none;stroke:#d62728;stroke-linecap:square;stroke-width:1.5;"/>
   </g>
   <g id="patch_3">
    <path d="M 59.36058 143.44 
L 59.36058 25.44 
" style="fill:none;stroke:#000000;stroke-linecap:square;stroke-linejoin:miter;stroke-width:0.8;"/>
   </g>
   <g id="patch_4">
    <path d="M 611.03835 143.44 
L 611.03835 25.44 
" style="fill:none;stroke:#000000;stroke-linecap:square;stroke-linejoin:miter;stroke-width:0.8;"/>
   </g>
   <g id="patch_5">
    <path d="M 59.36058 143.44 
L 611.03835 143.44 
" style="fill:none;stroke:#000000;stroke-linecap:square;stroke-linejoin:miter;stroke-width:0.8;"/>
   </g>
   <g id="patch_6">
    <path d="M 59.36058 25.44 
L 611.03835 25.44 
" style="fill:none;stroke:#000000;stroke-linecap:square;stroke-linejoin:miter;stroke-width:0.8;"/>
   </g>
   <g id="text_14">
    <!-- Tidsdomene av signal -->
    <g transform="translate(269.82009 19.44)scale(0.12 -0.12)">
     <defs>
      <path d="M 30.609375 48.390625 
Q 23.390625 48.390625 19.1875 42.75 
Q 14.984375 37.109375 14.984375 27.296875 
Q 14.984375 17.484375 19.15625 11.84375 
Q 23.34375 6.203125 30.609375 6.203125 
Q 37.796875 6.203125 41.984375 11.859375 
Q 46.1875 17.53125 46.1875 27.296875 
Q 46.1875 37.015625 41.984375 42.703125 
Q 37.796875 48.390625 30.609375 48.390625 
z
M 30.609375 56 
Q 42.328125 56 49.015625 48.375 
Q 55.71875 40.765625 55.71875 27.296875 
Q 55.71875 13.875 49.015625 6.21875 
Q 42.328125 -1.421875 30.609375 -1.421875 
Q 18.84375 -1.421875 12.171875 6.21875 
Q 5.515625 13.875 5.515625 27.296875 
Q 5.515625 40.765625 12.171875 48.375 
Q 18.84375 56 30.609375 56 
z
" id="DejaVuSans-111"/>
      <path d="M 52 44.1875 
Q 55.375 50.25 60.0625 53.125 
Q 64.75 56 71.09375 56 
Q 79.640625 56 84.28125 50.015625 
Q 88.921875 44.046875 88.921875 33.015625 
L 88.921875 0 
L 79.890625 0 
L 79.890625 32.71875 
Q 79.890625 40.578125 77.09375 44.375 
Q 74.3125 48.1875 68.609375 48.1875 
Q 61.625 48.1875 57.5625 43.546875 
Q 53.515625 38.921875 53.515625 30.90625 
L 53.515625 0 
L 44.484375 0 
L 44.484375 32.71875 
Q 44.484375 40.625 41.703125 44.40625 
Q 38.921875 48.1875 33.109375 48.1875 
Q 26.21875 48.1875 22.15625 43.53125 
Q 18.109375 38.875 18.109375 30.90625 
L 18.109375 0 
L 9.078125 0 
L 9.078125 54.6875 
L 18.109375 54.6875 
L 18.109375 46.1875 
Q 21.1875 51.21875 25.484375 53.609375 
Q 29.78125 56 35.6875 56 
Q 41.65625 56 45.828125 52.96875 
Q 50 49.953125 52 44.1875 
z
" id="DejaVuSans-109"/>
      <path d="M 34.28125 27.484375 
Q 23.390625 27.484375 19.1875 25 
Q 14.984375 22.515625 14.984375 16.5 
Q 14.984375 11.71875 18.140625 8.90625 
Q 21.296875 6.109375 26.703125 6.109375 
Q 34.1875 6.109375 38.703125 11.40625 
Q 43.21875 16.703125 43.21875 25.484375 
L 43.21875 27.484375 
z
M 52.203125 31.203125 
L 52.203125 0 
L 43.21875 0 
L 43.21875 8.296875 
Q 40.140625 3.328125 35.546875 0.953125 
Q 30.953125 -1.421875 24.3125 -1.421875 
Q 15.921875 -1.421875 10.953125 3.296875 
Q 6 8.015625 6 15.921875 
Q 6 25.140625 12.171875 29.828125 
Q 18.359375 34.515625 30.609375 34.515625 
L 43.21875 34.515625 
L 43.21875 35.40625 
Q 43.21875 41.609375 39.140625 45 
Q 35.0625 48.390625 27.6875 48.390625 
Q 23 48.390625 18.546875 47.265625 
Q 14.109375 46.140625 10.015625 43.890625 
L 10.015625 52.203125 
Q 14.9375 54.109375 19.578125 55.046875 
Q 24.21875 56 28.609375 56 
Q 40.484375 56 46.34375 49.84375 
Q 52.203125 43.703125 52.203125 31.203125 
z
" id="DejaVuSans-97"/>
      <path d="M 2.984375 54.6875 
L 12.5 54.6875 
L 29.59375 8.796875 
L 46.6875 54.6875 
L 56.203125 54.6875 
L 35.6875 0 
L 23.484375 0 
z
" id="DejaVuSans-118"/>
      <path d="M 9.421875 75.984375 
L 18.40625 75.984375 
L 18.40625 0 
L 9.421875 0 
z
" id="DejaVuSans-108"/>
     </defs>
     <use xlink:href="#DejaVuSans-84"/>
     <use x="57.958984" xlink:href="#DejaVuSans-105"/>
     <use x="85.742188" xlink:href="#DejaVuSans-100"/>
     <use x="149.21875" xlink:href="#DejaVuSans-115"/>
     <use x="201.318359" xlink:href="#DejaVuSans-100"/>
     <use x="264.794922" xlink:href="#DejaVuSans-111"/>
     <use x="325.976562" xlink:href="#DejaVuSans-109"/>
     <use x="423.388672" xlink:href="#DejaVuSans-101"/>
     <use x="484.912109" xlink:href="#DejaVuSans-110"/>
     <use x="548.291016" xlink:href="#DejaVuSans-101"/>
     <use x="609.814453" xlink:href="#DejaVuSans-32"/>
     <use x="641.601562" xlink:href="#DejaVuSans-97"/>
     <use x="702.880859" xlink:href="#DejaVuSans-118"/>
     <use x="762.060547" xlink:href="#DejaVuSans-32"/>
     <use x="793.847656" xlink:href="#DejaVuSans-115"/>
     <use x="845.947266" xlink:href="#DejaVuSans-105"/>
     <use x="873.730469" xlink:href="#DejaVuSans-103"/>
     <use x="937.207031" xlink:href="#DejaVuSans-110"/>
     <use x="1000.585938" xlink:href="#DejaVuSans-97"/>
     <use x="1061.865234" xlink:href="#DejaVuSans-108"/>
    </g>
   </g>
   <g id="legend_1">
    <g id="patch_7">
     <path d="M 66.36058 115.29625 
L 118.043392 115.29625 
Q 120.043392 115.29625 120.043392 113.29625 
L 120.043392 55.58375 
Q 120.043392 53.58375 118.043392 53.58375 
L 66.36058 53.58375 
Q 64.36058 53.58375 64.36058 55.58375 
L 64.36058 113.29625 
Q 64.36058 115.29625 66.36058 115.29625 
z
" style="fill:#ffffff;opacity:0.8;stroke:#cccccc;stroke-linejoin:miter;"/>
    </g>
    <g id="line2d_27">
     <path d="M 68.36058 61.682188 
L 88.36058 61.682188 
" style="fill:none;stroke:#1f77b4;stroke-linecap:square;stroke-width:1.5;"/>
    </g>
    <g id="line2d_28"/>
    <g id="text_15">
     <!-- Ch1 -->
     <g transform="translate(96.36058 65.182188)scale(0.1 -0.1)">
      <defs>
       <path d="M 64.40625 67.28125 
L 64.40625 56.890625 
Q 59.421875 61.53125 53.78125 63.8125 
Q 48.140625 66.109375 41.796875 66.109375 
Q 29.296875 66.109375 22.65625 58.46875 
Q 16.015625 50.828125 16.015625 36.375 
Q 16.015625 21.96875 22.65625 14.328125 
Q 29.296875 6.6875 41.796875 6.6875 
Q 48.140625 6.6875 53.78125 8.984375 
Q 59.421875 11.28125 64.40625 15.921875 
L 64.40625 5.609375 
Q 59.234375 2.09375 53.4375 0.328125 
Q 47.65625 -1.421875 41.21875 -1.421875 
Q 24.65625 -1.421875 15.125 8.703125 
Q 5.609375 18.84375 5.609375 36.375 
Q 5.609375 53.953125 15.125 64.078125 
Q 24.65625 74.21875 41.21875 74.21875 
Q 47.75 74.21875 53.53125 72.484375 
Q 59.328125 70.75 64.40625 67.28125 
z
" id="DejaVuSans-67"/>
       <path d="M 54.890625 33.015625 
L 54.890625 0 
L 45.90625 0 
L 45.90625 32.71875 
Q 45.90625 40.484375 42.875 44.328125 
Q 39.84375 48.1875 33.796875 48.1875 
Q 26.515625 48.1875 22.3125 43.546875 
Q 18.109375 38.921875 18.109375 30.90625 
L 18.109375 0 
L 9.078125 0 
L 9.078125 75.984375 
L 18.109375 75.984375 
L 18.109375 46.1875 
Q 21.34375 51.125 25.703125 53.5625 
Q 30.078125 56 35.796875 56 
Q 45.21875 56 50.046875 50.171875 
Q 54.890625 44.34375 54.890625 33.015625 
z
" id="DejaVuSans-104"/>
      </defs>
      <use xlink:href="#DejaVuSans-67"/>
      <use x="69.824219" xlink:href="#DejaVuSans-104"/>
      <use x="133.203125" xlink:href="#DejaVuSans-49"/>
     </g>
    </g>
    <g id="line2d_29">
     <path d="M 68.36058 76.360313 
L 88.36058 76.360313 
" style="fill:none;stroke:#ff7f0e;stroke-linecap:square;stroke-width:1.5;"/>
    </g>
    <g id="line2d_30"/>
    <g id="text_16">
     <!-- Ch2 -->
     <g transform="translate(96.36058 79.860313)scale(0.1 -0.1)">
      <use xlink:href="#DejaVuSans-67"/>
      <use x="69.824219" xlink:href="#DejaVuSans-104"/>
      <use x="133.203125" xlink:href="#DejaVuSans-50"/>
     </g>
    </g>
    <g id="line2d_31">
     <path d="M 68.36058 91.038438 
L 88.36058 91.038438 
" style="fill:none;stroke:#2ca02c;stroke-linecap:square;stroke-width:1.5;"/>
    </g>
    <g id="line2d_32"/>
    <g id="text_17">
     <!-- Ch3 -->
     <g transform="translate(96.36058 94.538438)scale(0.1 -0.1)">
      <defs>
       <path d="M 40.578125 39.3125 
Q 47.65625 37.796875 51.625 33 
Q 55.609375 28.21875 55.609375 21.1875 
Q 55.609375 10.40625 48.1875 4.484375 
Q 40.765625 -1.421875 27.09375 -1.421875 
Q 22.515625 -1.421875 17.65625 -0.515625 
Q 12.796875 0.390625 7.625 2.203125 
L 7.625 11.71875 
Q 11.71875 9.328125 16.59375 8.109375 
Q 21.484375 6.890625 26.8125 6.890625 
Q 36.078125 6.890625 40.9375 10.546875 
Q 45.796875 14.203125 45.796875 21.1875 
Q 45.796875 27.640625 41.28125 31.265625 
Q 36.765625 34.90625 28.71875 34.90625 
L 20.21875 34.90625 
L 20.21875 43.015625 
L 29.109375 43.015625 
Q 36.375 43.015625 40.234375 45.921875 
Q 44.09375 48.828125 44.09375 54.296875 
Q 44.09375 59.90625 40.109375 62.90625 
Q 36.140625 65.921875 28.71875 65.921875 
Q 24.65625 65.921875 20.015625 65.03125 
Q 15.375 64.15625 9.8125 62.3125 
L 9.8125 71.09375 
Q 15.4375 72.65625 20.34375 73.4375 
Q 25.25 74.21875 29.59375 74.21875 
Q 40.828125 74.21875 47.359375 69.109375 
Q 53.90625 64.015625 53.90625 55.328125 
Q 53.90625 49.265625 50.4375 45.09375 
Q 46.96875 40.921875 40.578125 39.3125 
z
" id="DejaVuSans-51"/>
      </defs>
      <use xlink:href="#DejaVuSans-67"/>
      <use x="69.824219" xlink:href="#DejaVuSans-104"/>
      <use x="133.203125" xlink:href="#DejaVuSans-51"/>
     </g>
    </g>
    <g id="line2d_33">
     <path d="M 68.36058 105.716563 
L 88.36058 105.716563 
" style="fill:none;stroke:#d62728;stroke-linecap:square;stroke-width:1.5;"/>
    </g>
    <g id="line2d_34"/>
    <g id="text_18">
     <!-- Ch4 -->
     <g transform="translate(96.36058 109.216563)scale(0.1 -0.1)">
      <use xlink:href="#DejaVuSans-67"/>
      <use x="69.824219" xlink:href="#DejaVuSans-104"/>
      <use x="133.203125" xlink:href="#DejaVuSans-52"/>
     </g>
    </g>
   </g>
  </g>
  <g id="axes_2">
   <g id="patch_8">
    <path d="M 59.36058 318.04 
L 611.03835 318.04 
L 611.03835 200.04 
L 59.36058 200.04 
z
" style="fill:#ffffff;"/>
   </g>
   <g id="matplotlib.axis_3">
    <g id="xtick_7">
     <g id="line2d_35">
      <g>
       <use style="stroke:#000000;stroke-width:0.8;" x="59.36058" xlink:href="#ma6e22feafa" y="318.04"/>
      </g>
     </g>
     <g id="text_19">
      <!-- 11000 -->
      <g transform="translate(43.45433 332.638438)scale(0.1 -0.1)">
       <use xlink:href="#DejaVuSans-49"/>
       <use x="63.623047" xlink:href="#DejaVuSans-49"/>
       <use x="127.246094" xlink:href="#DejaVuSans-48"/>
       <use x="190.869141" xlink:href="#DejaVuSans-48"/>
       <use x="254.492188" xlink:href="#DejaVuSans-48"/>
      </g>
     </g>
    </g>
    <g id="xtick_8">
     <g id="line2d_36">
      <g>
       <use style="stroke:#000000;stroke-width:0.8;" x="169.696134" xlink:href="#ma6e22feafa" y="318.04"/>
      </g>
     </g>
     <g id="text_20">
      <!-- 11100 -->
      <g transform="translate(153.789884 332.638438)scale(0.1 -0.1)">
       <use xlink:href="#DejaVuSans-49"/>
       <use x="63.623047" xlink:href="#DejaVuSans-49"/>
       <use x="127.246094" xlink:href="#DejaVuSans-49"/>
       <use x="190.869141" xlink:href="#DejaVuSans-48"/>
       <use x="254.492188" xlink:href="#DejaVuSans-48"/>
      </g>
     </g>
    </g>
    <g id="xtick_9">
     <g id="line2d_37">
      <g>
       <use style="stroke:#000000;stroke-width:0.8;" x="280.031688" xlink:href="#ma6e22feafa" y="318.04"/>
      </g>
     </g>
     <g id="text_21">
      <!-- 11200 -->
      <g transform="translate(264.125438 332.638438)scale(0.1 -0.1)">
       <use xlink:href="#DejaVuSans-49"/>
       <use x="63.623047" xlink:href="#DejaVuSans-49"/>
       <use x="127.246094" xlink:href="#DejaVuSans-50"/>
       <use x="190.869141" xlink:href="#DejaVuSans-48"/>
       <use x="254.492188" xlink:href="#DejaVuSans-48"/>
      </g>
     </g>
    </g>
    <g id="xtick_10">
     <g id="line2d_38">
      <g>
       <use style="stroke:#000000;stroke-width:0.8;" x="390.367242" xlink:href="#ma6e22feafa" y="318.04"/>
      </g>
     </g>
     <g id="text_22">
      <!-- 11300 -->
      <g transform="translate(374.460992 332.638438)scale(0.1 -0.1)">
       <use xlink:href="#DejaVuSans-49"/>
       <use x="63.623047" xlink:href="#DejaVuSans-49"/>
       <use x="127.246094" xlink:href="#DejaVuSans-51"/>
       <use x="190.869141" xlink:href="#DejaVuSans-48"/>
       <use x="254.492188" xlink:href="#DejaVuSans-48"/>
      </g>
     </g>
    </g>
    <g id="xtick_11">
     <g id="line2d_39">
      <g>
       <use style="stroke:#000000;stroke-width:0.8;" x="500.702796" xlink:href="#ma6e22feafa" y="318.04"/>
      </g>
     </g>
     <g id="text_23">
      <!-- 11400 -->
      <g transform="translate(484.796546 332.638438)scale(0.1 -0.1)">
       <use xlink:href="#DejaVuSans-49"/>
       <use x="63.623047" xlink:href="#DejaVuSans-49"/>
       <use x="127.246094" xlink:href="#DejaVuSans-52"/>
       <use x="190.869141" xlink:href="#DejaVuSans-48"/>
       <use x="254.492188" xlink:href="#DejaVuSans-48"/>
      </g>
     </g>
    </g>
    <g id="xtick_12">
     <g id="line2d_40">
      <g>
       <use style="stroke:#000000;stroke-width:0.8;" x="611.03835" xlink:href="#ma6e22feafa" y="318.04"/>
      </g>
     </g>
     <g id="text_24">
      <!-- 11500 -->
      <g transform="translate(595.1321 332.638438)scale(0.1 -0.1)">
       <defs>
        <path d="M 10.796875 72.90625 
L 49.515625 72.90625 
L 49.515625 64.59375 
L 19.828125 64.59375 
L 19.828125 46.734375 
Q 21.96875 47.46875 24.109375 47.828125 
Q 26.265625 48.1875 28.421875 48.1875 
Q 40.625 48.1875 47.75 41.5 
Q 54.890625 34.8125 54.890625 23.390625 
Q 54.890625 11.625 47.5625 5.09375 
Q 40.234375 -1.421875 26.90625 -1.421875 
Q 22.3125 -1.421875 17.546875 -0.640625 
Q 12.796875 0.140625 7.71875 1.703125 
L 7.71875 11.625 
Q 12.109375 9.234375 16.796875 8.0625 
Q 21.484375 6.890625 26.703125 6.890625 
Q 35.15625 6.890625 40.078125 11.328125 
Q 45.015625 15.765625 45.015625 23.390625 
Q 45.015625 31 40.078125 35.4375 
Q 35.15625 39.890625 26.703125 39.890625 
Q 22.75 39.890625 18.8125 39.015625 
Q 14.890625 38.140625 10.796875 36.28125 
z
" id="DejaVuSans-53"/>
       </defs>
       <use xlink:href="#DejaVuSans-49"/>
       <use x="63.623047" xlink:href="#DejaVuSans-49"/>
       <use x="127.246094" xlink:href="#DejaVuSans-53"/>
       <use x="190.869141" xlink:href="#DejaVuSans-48"/>
       <use x="254.492188" xlink:href="#DejaVuSans-48"/>
      </g>
     </g>
    </g>
    <g id="text_25">
     <!-- Frekvens [Hz] -->
     <g transform="translate(301.086965 346.316563)scale(0.1 -0.1)">
      <defs>
       <path d="M 9.8125 72.90625 
L 51.703125 72.90625 
L 51.703125 64.59375 
L 19.671875 64.59375 
L 19.671875 43.109375 
L 48.578125 43.109375 
L 48.578125 34.8125 
L 19.671875 34.8125 
L 19.671875 0 
L 9.8125 0 
z
" id="DejaVuSans-70"/>
       <path d="M 41.109375 46.296875 
Q 39.59375 47.171875 37.8125 47.578125 
Q 36.03125 48 33.890625 48 
Q 26.265625 48 22.1875 43.046875 
Q 18.109375 38.09375 18.109375 28.8125 
L 18.109375 0 
L 9.078125 0 
L 9.078125 54.6875 
L 18.109375 54.6875 
L 18.109375 46.1875 
Q 20.953125 51.171875 25.484375 53.578125 
Q 30.03125 56 36.53125 56 
Q 37.453125 56 38.578125 55.875 
Q 39.703125 55.765625 41.0625 55.515625 
z
" id="DejaVuSans-114"/>
       <path d="M 9.078125 75.984375 
L 18.109375 75.984375 
L 18.109375 31.109375 
L 44.921875 54.6875 
L 56.390625 54.6875 
L 27.390625 29.109375 
L 57.625 0 
L 45.90625 0 
L 18.109375 26.703125 
L 18.109375 0 
L 9.078125 0 
z
" id="DejaVuSans-107"/>
       <path d="M 9.8125 72.90625 
L 19.671875 72.90625 
L 19.671875 43.015625 
L 55.515625 43.015625 
L 55.515625 72.90625 
L 65.375 72.90625 
L 65.375 0 
L 55.515625 0 
L 55.515625 34.71875 
L 19.671875 34.71875 
L 19.671875 0 
L 9.8125 0 
z
" id="DejaVuSans-72"/>
       <path d="M 5.515625 54.6875 
L 48.1875 54.6875 
L 48.1875 46.484375 
L 14.40625 7.171875 
L 48.1875 7.171875 
L 48.1875 0 
L 4.296875 0 
L 4.296875 8.203125 
L 38.09375 47.515625 
L 5.515625 47.515625 
z
" id="DejaVuSans-122"/>
      </defs>
      <use xlink:href="#DejaVuSans-70"/>
      <use x="50.269531" xlink:href="#DejaVuSans-114"/>
      <use x="89.132812" xlink:href="#DejaVuSans-101"/>
      <use x="150.65625" xlink:href="#DejaVuSans-107"/>
      <use x="208.566406" xlink:href="#DejaVuSans-118"/>
      <use x="267.746094" xlink:href="#DejaVuSans-101"/>
      <use x="329.269531" xlink:href="#DejaVuSans-110"/>
      <use x="392.648438" xlink:href="#DejaVuSans-115"/>
      <use x="444.748047" xlink:href="#DejaVuSans-32"/>
      <use x="476.535156" xlink:href="#DejaVuSans-91"/>
      <use x="515.548828" xlink:href="#DejaVuSans-72"/>
      <use x="590.744141" xlink:href="#DejaVuSans-122"/>
      <use x="643.234375" xlink:href="#DejaVuSans-93"/>
     </g>
    </g>
   </g>
   <g id="matplotlib.axis_4">
    <g id="ytick_6">
     <g id="line2d_41">
      <g>
       <use style="stroke:#000000;stroke-width:0.8;" x="59.36058" xlink:href="#m9373405ce0" y="306.917155"/>
      </g>
     </g>
     <g id="text_26">
      <!-- −150 -->
      <g transform="translate(24.893393 310.716374)scale(0.1 -0.1)">
       <use xlink:href="#DejaVuSans-8722"/>
       <use x="83.789062" xlink:href="#DejaVuSans-49"/>
       <use x="147.412109" xlink:href="#DejaVuSans-53"/>
       <use x="211.035156" xlink:href="#DejaVuSans-48"/>
      </g>
     </g>
    </g>
    <g id="ytick_7">
     <g id="line2d_42">
      <g>
       <use style="stroke:#000000;stroke-width:0.8;" x="59.36058" xlink:href="#m9373405ce0" y="268.400363"/>
      </g>
     </g>
     <g id="text_27">
      <!-- −100 -->
      <g transform="translate(24.893393 272.199581)scale(0.1 -0.1)">
       <use xlink:href="#DejaVuSans-8722"/>
       <use x="83.789062" xlink:href="#DejaVuSans-49"/>
       <use x="147.412109" xlink:href="#DejaVuSans-48"/>
       <use x="211.035156" xlink:href="#DejaVuSans-48"/>
      </g>
     </g>
    </g>
    <g id="ytick_8">
     <g id="line2d_43">
      <g>
       <use style="stroke:#000000;stroke-width:0.8;" x="59.36058" xlink:href="#m9373405ce0" y="229.88357"/>
      </g>
     </g>
     <g id="text_28">
      <!-- −50 -->
      <g transform="translate(31.255893 233.682789)scale(0.1 -0.1)">
       <use xlink:href="#DejaVuSans-8722"/>
       <use x="83.789062" xlink:href="#DejaVuSans-53"/>
       <use x="147.412109" xlink:href="#DejaVuSans-48"/>
      </g>
     </g>
    </g>
    <g id="text_29">
     <!-- Magnitude [dB] -->
     <g transform="translate(18.813705 297.625156)rotate(-90)scale(0.1 -0.1)">
      <defs>
       <path d="M 9.8125 72.90625 
L 24.515625 72.90625 
L 43.109375 23.296875 
L 61.8125 72.90625 
L 76.515625 72.90625 
L 76.515625 0 
L 66.890625 0 
L 66.890625 64.015625 
L 48.09375 14.015625 
L 38.1875 14.015625 
L 19.390625 64.015625 
L 19.390625 0 
L 9.8125 0 
z
" id="DejaVuSans-77"/>
       <path d="M 18.3125 70.21875 
L 18.3125 54.6875 
L 36.8125 54.6875 
L 36.8125 47.703125 
L 18.3125 47.703125 
L 18.3125 18.015625 
Q 18.3125 11.328125 20.140625 9.421875 
Q 21.96875 7.515625 27.59375 7.515625 
L 36.8125 7.515625 
L 36.8125 0 
L 27.59375 0 
Q 17.1875 0 13.234375 3.875 
Q 9.28125 7.765625 9.28125 18.015625 
L 9.28125 47.703125 
L 2.6875 47.703125 
L 2.6875 54.6875 
L 9.28125 54.6875 
L 9.28125 70.21875 
z
" id="DejaVuSans-116"/>
       <path d="M 19.671875 34.8125 
L 19.671875 8.109375 
L 35.5 8.109375 
Q 43.453125 8.109375 47.28125 11.40625 
Q 51.125 14.703125 51.125 21.484375 
Q 51.125 28.328125 47.28125 31.5625 
Q 43.453125 34.8125 35.5 34.8125 
z
M 19.671875 64.796875 
L 19.671875 42.828125 
L 34.28125 42.828125 
Q 41.5 42.828125 45.03125 45.53125 
Q 48.578125 48.25 48.578125 53.8125 
Q 48.578125 59.328125 45.03125 62.0625 
Q 41.5 64.796875 34.28125 64.796875 
z
M 9.8125 72.90625 
L 35.015625 72.90625 
Q 46.296875 72.90625 52.390625 68.21875 
Q 58.5 63.53125 58.5 54.890625 
Q 58.5 48.1875 55.375 44.234375 
Q 52.25 40.28125 46.1875 39.3125 
Q 53.46875 37.75 57.5 32.78125 
Q 61.53125 27.828125 61.53125 20.40625 
Q 61.53125 10.640625 54.890625 5.3125 
Q 48.25 0 35.984375 0 
L 9.8125 0 
z
" id="DejaVuSans-66"/>
      </defs>
      <use xlink:href="#DejaVuSans-77"/>
      <use x="86.279297" xlink:href="#DejaVuSans-97"/>
      <use x="147.558594" xlink:href="#DejaVuSans-103"/>
      <use x="211.035156" xlink:href="#DejaVuSans-110"/>
      <use x="274.414062" xlink:href="#DejaVuSans-105"/>
      <use x="302.197266" xlink:href="#DejaVuSans-116"/>
      <use x="341.40625" xlink:href="#DejaVuSans-117"/>
      <use x="404.785156" xlink:href="#DejaVuSans-100"/>
      <use x="468.261719" xlink:href="#DejaVuSans-101"/>
      <use x="529.785156" xlink:href="#DejaVuSans-32"/>
      <use x="561.572266" xlink:href="#DejaVuSans-91"/>
      <use x="600.585938" xlink:href="#DejaVuSans-100"/>
      <use x="664.0625" xlink:href="#DejaVuSans-66"/>
      <use x="732.666016" xlink:href="#DejaVuSans-93"/>
     </g>
    </g>
   </g>
   <g id="line2d_44">
    <path clip-path="url(#pd193a49b10)" d="M 58.779199 277.52642 
L 60.9814 278.87644 
L 63.183601 275.566661 
L 65.385802 275.15081 
L 67.588003 274.012217 
L 69.790204 275.335485 
L 71.992405 276.246155 
L 74.194606 283.863579 
L 76.396807 276.789192 
L 78.599008 287.313019 
L 80.801209 274.665603 
L 85.205611 282.353731 
L 87.407812 274.507422 
L 89.610013 272.656147 
L 91.812214 273.707409 
L 94.014415 268.482149 
L 96.216615 269.197133 
L 100.621017 278.753316 
L 102.823218 278.835763 
L 105.025419 270.98729 
L 107.22762 273.989565 
L 109.429821 279.782145 
L 111.632022 281.655706 
L 113.834223 285.448935 
L 116.036424 280.477429 
L 118.238625 279.409354 
L 120.440826 282.825428 
L 122.643027 277.12413 
L 124.845228 276.430152 
L 127.047429 282.606299 
L 129.24963 279.313377 
L 131.451831 278.363828 
L 133.654032 284.410154 
L 135.856233 272.15167 
L 138.058434 271.265279 
L 140.260635 278.98745 
L 142.462836 276.486497 
L 144.665037 280.578533 
L 146.867238 277.719208 
L 149.069439 277.453683 
L 151.27164 280.743386 
L 153.473841 277.414922 
L 155.676042 283.223215 
L 157.878243 275.984752 
L 160.080444 283.113233 
L 164.484846 274.42819 
L 166.687047 275.653316 
L 168.889248 274.295646 
L 171.091449 278.664954 
L 173.29365 276.021236 
L 175.49585 275.202369 
L 177.698051 272.080106 
L 179.900252 271.251622 
L 182.102453 277.86937 
L 184.304654 271.480462 
L 186.506855 272.587079 
L 188.709056 273.353203 
L 190.911257 276.894757 
L 193.113458 278.369061 
L 195.315659 272.536779 
L 197.51786 275.924942 
L 199.720061 281.052359 
L 201.922262 278.082286 
L 204.124463 280.935578 
L 206.326664 284.100593 
L 208.528865 278.014665 
L 210.731066 276.752973 
L 212.933267 279.185871 
L 215.135468 278.535459 
L 217.337669 270.044804 
L 219.53987 263.859336 
L 221.742071 265.476276 
L 223.944272 275.13071 
L 226.146473 275.448269 
L 228.348674 273.993361 
L 230.550875 273.509251 
L 232.753076 275.305301 
L 234.955277 274.132734 
L 237.157478 279.505073 
L 239.359679 279.924867 
L 241.56188 282.637664 
L 243.764081 273.71945 
L 245.966282 279.188931 
L 248.168483 275.989159 
L 250.370684 278.626071 
L 252.572885 274.545939 
L 254.775085 271.674453 
L 256.977286 269.945333 
L 259.179487 276.358018 
L 261.381688 278.525694 
L 263.583889 274.504697 
L 265.78609 277.333126 
L 267.988291 272.649455 
L 270.190492 273.676209 
L 272.392693 270.80708 
L 274.594894 277.449378 
L 276.797095 275.892601 
L 278.999296 279.663958 
L 281.201497 272.428588 
L 283.403698 276.907259 
L 285.605899 276.562045 
L 287.8081 273.996633 
L 290.010301 272.583101 
L 292.212502 273.744724 
L 294.414703 273.110209 
L 296.616904 273.624215 
L 298.819105 270.508391 
L 301.021306 271.059187 
L 303.223507 270.310503 
L 305.425708 267.5801 
L 307.627909 266.241776 
L 309.83011 266.027716 
L 312.032311 264.334266 
L 314.234512 261.054974 
L 316.436713 260.075322 
L 318.638914 256.910315 
L 320.841115 254.650186 
L 323.043316 251.213733 
L 325.245517 247.185 
L 327.447718 242.320712 
L 329.649919 235.470327 
L 331.85212 223.56889 
L 334.05432 208.628746 
L 336.256521 205.403636 
L 338.458722 211.408414 
L 340.660923 230.791011 
L 342.863124 239.389896 
L 345.065325 245.042947 
L 347.267526 250.082026 
L 349.469727 253.014977 
L 351.671928 256.663445 
L 353.874129 259.239219 
L 356.07633 261.475304 
L 358.278531 263.966752 
L 362.682933 266.065294 
L 364.885134 276.461888 
L 367.087335 262.953166 
L 369.289536 272.030382 
L 371.491737 273.015814 
L 373.693938 276.121254 
L 375.896139 275.98566 
L 378.09834 274.33117 
L 380.300541 279.129851 
L 382.502742 279.456401 
L 384.704943 274.441506 
L 386.907144 274.474061 
L 389.109345 276.752244 
L 391.311546 278.453365 
L 393.513747 277.688845 
L 395.715948 275.859602 
L 397.918149 273.809805 
L 400.12035 278.240803 
L 402.322551 283.845724 
L 404.524752 275.310211 
L 406.726953 282.092173 
L 408.929154 275.886984 
L 411.131355 276.59278 
L 413.333556 275.298198 
L 415.535756 275.686874 
L 417.737957 272.688615 
L 419.940158 278.892206 
L 422.142359 291.2458 
L 424.34456 281.813585 
L 426.546761 284.958378 
L 428.748962 287.141279 
L 430.951163 277.801399 
L 433.153364 275.100118 
L 435.355565 286.437056 
L 437.557766 280.018211 
L 439.759967 285.81452 
L 441.962168 278.917656 
L 444.164369 283.690126 
L 446.36657 280.414996 
L 448.568771 275.116565 
L 450.770972 272.301622 
L 452.973173 280.883027 
L 455.175374 281.51572 
L 457.377575 277.119006 
L 459.579776 274.011505 
L 461.781977 276.970869 
L 463.984178 282.358775 
L 466.186379 280.29897 
L 468.38858 279.741586 
L 470.590781 285.765754 
L 472.792982 277.629101 
L 474.995183 281.69279 
L 477.197384 284.985568 
L 479.399585 276.707919 
L 481.601786 281.158577 
L 483.803987 274.324786 
L 486.006188 273.905413 
L 488.208389 276.470222 
L 490.41059 280.009457 
L 492.612791 273.282727 
L 494.814991 277.863198 
L 497.017192 283.356996 
L 499.219393 290.216715 
L 501.421594 279.527198 
L 503.623795 279.925686 
L 505.825996 274.931816 
L 508.028197 272.752976 
L 510.230398 269.121774 
L 512.432599 269.392111 
L 514.6348 275.691949 
L 516.837001 275.703512 
L 519.039202 280.486721 
L 521.241403 284.70679 
L 523.443604 275.625116 
L 525.645805 275.506515 
L 527.848006 282.166057 
L 530.050207 282.173167 
L 532.252408 269.846542 
L 534.454609 267.309756 
L 536.65681 274.379253 
L 538.859011 278.104399 
L 541.061212 281.441682 
L 543.263413 278.362166 
L 545.465614 277.282832 
L 547.667815 279.145943 
L 549.870016 282.353083 
L 552.072217 281.668094 
L 554.274418 276.682305 
L 556.476619 276.485085 
L 558.67882 275.911748 
L 560.881021 277.612023 
L 563.083222 267.453984 
L 565.285423 267.263392 
L 567.487624 281.426346 
L 571.892026 280.465672 
L 574.094226 277.347526 
L 576.296427 278.262341 
L 578.498628 281.449032 
L 580.700829 286.638836 
L 582.90303 275.337476 
L 585.105231 271.806613 
L 587.307432 275.400444 
L 589.509633 274.097769 
L 591.711834 276.514594 
L 593.914035 278.287885 
L 596.116236 283.65663 
L 598.318437 277.483457 
L 600.520638 273.457196 
L 602.722839 275.579867 
L 604.92504 277.256637 
L 607.127241 279.864807 
L 609.329442 276.764345 
L 611.531643 275.671461 
L 611.531643 275.671461 
" style="fill:none;stroke:#1f77b4;stroke-linecap:square;stroke-width:1.5;"/>
   </g>
   <g id="line2d_45">
    <path clip-path="url(#pd193a49b10)" d="M 58.779199 279.419678 
L 60.9814 280.983214 
L 63.183601 279.20248 
L 65.385802 278.622458 
L 67.588003 277.750389 
L 69.790204 277.43166 
L 71.992405 278.382835 
L 74.194606 292.425887 
L 76.396807 278.984472 
L 78.599008 282.24815 
L 80.801209 276.860283 
L 83.00341 277.859789 
L 85.205611 278.332753 
L 87.407812 275.508161 
L 89.610013 276.199585 
L 91.812214 277.374438 
L 94.014415 270.776819 
L 96.216615 270.836595 
L 98.418816 275.84903 
L 100.621017 278.753115 
L 102.823218 277.863017 
L 105.025419 272.286656 
L 107.22762 276.049894 
L 109.429821 282.137939 
L 111.632022 283.861849 
L 113.834223 289.287785 
L 116.036424 283.042852 
L 118.238625 281.206917 
L 120.440826 284.699911 
L 122.643027 279.069579 
L 124.845228 277.906754 
L 127.047429 282.852941 
L 129.24963 285.305886 
L 131.451831 280.728069 
L 133.654032 282.496989 
L 135.856233 275.10777 
L 138.058434 274.153389 
L 140.260635 282.150748 
L 142.462836 278.413901 
L 144.665037 282.284192 
L 146.867238 278.399548 
L 149.069439 278.814132 
L 151.27164 282.26774 
L 153.473841 279.00757 
L 155.676042 285.22051 
L 157.878243 278.957889 
L 160.080444 285.034629 
L 162.282645 284.754494 
L 164.484846 277.845544 
L 166.687047 275.310056 
L 168.889248 274.999609 
L 171.091449 279.141222 
L 173.29365 277.539397 
L 175.49585 278.374584 
L 177.698051 275.102179 
L 179.900252 274.457588 
L 182.102453 280.729449 
L 184.304654 273.880551 
L 186.506855 274.361926 
L 188.709056 275.071722 
L 190.911257 280.232342 
L 193.113458 281.465255 
L 195.315659 275.317861 
L 199.720061 284.678362 
L 201.922262 283.796665 
L 204.124463 286.311884 
L 206.326664 282.933894 
L 208.528865 277.655974 
L 210.731066 278.054952 
L 212.933267 279.856535 
L 215.135468 278.958072 
L 217.337669 271.885848 
L 219.53987 266.259371 
L 221.742071 267.978596 
L 223.944272 278.56724 
L 228.348674 276.248513 
L 230.550875 275.850474 
L 232.753076 277.546875 
L 234.955277 276.92863 
L 237.157478 281.158269 
L 239.359679 281.847024 
L 241.56188 283.428283 
L 243.764081 275.206316 
L 245.966282 279.567125 
L 248.168483 279.038952 
L 250.370684 282.087742 
L 252.572885 275.722242 
L 254.775085 274.505461 
L 256.977286 272.824235 
L 261.381688 283.18861 
L 263.583889 276.347318 
L 265.78609 279.85083 
L 267.988291 274.806525 
L 270.190492 274.962833 
L 272.392693 272.033629 
L 274.594894 278.605012 
L 276.797095 279.464667 
L 278.999296 286.428675 
L 281.201497 275.694405 
L 283.403698 277.850471 
L 285.605899 279.792273 
L 287.8081 275.612129 
L 290.010301 275.274955 
L 292.212502 276.428328 
L 294.414703 275.499195 
L 296.616904 275.196471 
L 298.819105 272.566189 
L 301.021306 273.087133 
L 303.223507 273.487476 
L 305.425708 269.343999 
L 307.627909 269.080182 
L 309.83011 267.832467 
L 312.032311 267.240052 
L 314.234512 263.229767 
L 316.436713 262.511823 
L 318.638914 259.211505 
L 320.841115 257.096261 
L 323.043316 253.560758 
L 325.245517 249.571951 
L 327.447718 244.688097 
L 329.649919 237.847242 
L 331.85212 225.943107 
L 334.05432 211.003327 
L 336.256521 207.778203 
L 338.458722 213.782984 
L 340.660923 233.165727 
L 342.863124 241.763694 
L 345.065325 247.435516 
L 347.267526 252.397247 
L 349.469727 255.405889 
L 351.671928 259.147959 
L 353.874129 261.566709 
L 356.07633 263.645743 
L 358.278531 266.647569 
L 360.480732 267.236165 
L 362.682933 268.339389 
L 364.885134 279.865577 
L 367.087335 265.814268 
L 369.289536 274.378007 
L 371.491737 274.617839 
L 373.693938 277.929871 
L 375.896139 279.373617 
L 378.09834 277.313451 
L 380.300541 279.356955 
L 382.502742 279.858941 
L 384.704943 277.709831 
L 386.907144 278.626603 
L 391.311546 279.551533 
L 393.513747 279.73094 
L 395.715948 279.732448 
L 397.918149 275.98906 
L 400.12035 278.175601 
L 402.322551 284.806563 
L 404.524752 276.52616 
L 406.726953 282.24662 
L 408.929154 277.508186 
L 411.131355 278.391965 
L 413.333556 277.319343 
L 415.535756 280.448753 
L 417.737957 276.781281 
L 419.940158 283.112781 
L 422.142359 284.518317 
L 424.34456 283.15491 
L 426.546761 285.734635 
L 428.748962 294.683464 
L 430.951163 280.528123 
L 433.153364 278.373794 
L 435.355565 294.58636 
L 437.557766 282.953458 
L 439.759967 282.247978 
L 441.962168 278.481283 
L 444.164369 282.808229 
L 446.36657 282.467646 
L 448.568771 276.47274 
L 450.770972 275.299589 
L 452.973173 288.597126 
L 457.377575 276.796297 
L 459.579776 275.066124 
L 461.781977 277.768613 
L 463.984178 280.70417 
L 466.186379 284.851918 
L 468.38858 281.250159 
L 470.590781 292.022087 
L 472.792982 279.206233 
L 474.995183 281.679964 
L 477.197384 286.760082 
L 479.399585 277.589097 
L 481.601786 280.40898 
L 483.803987 279.50657 
L 486.006188 276.832541 
L 488.208389 279.246352 
L 490.41059 282.683288 
L 492.612791 275.797917 
L 494.814991 279.600078 
L 497.017192 297.774823 
L 501.421594 279.648518 
L 503.623795 282.023588 
L 505.825996 275.831936 
L 508.028197 273.997733 
L 510.230398 271.258287 
L 512.432599 271.847663 
L 514.6348 278.006957 
L 516.837001 278.73652 
L 521.241403 288.428839 
L 523.443604 278.905743 
L 525.645805 279.017897 
L 527.848006 280.943663 
L 530.050207 281.746445 
L 532.252408 271.869596 
L 534.454609 269.436932 
L 536.65681 276.454335 
L 538.859011 280.833841 
L 541.061212 286.446057 
L 543.263413 283.188328 
L 545.465614 279.581502 
L 547.667815 280.200973 
L 549.870016 284.569672 
L 552.072217 285.468744 
L 554.274418 279.612718 
L 556.476619 279.390896 
L 558.67882 278.214592 
L 560.881021 279.32669 
L 563.083222 270.158737 
L 565.285423 270.093564 
L 567.487624 284.243985 
L 569.689825 282.619453 
L 571.892026 284.396804 
L 574.094226 280.462776 
L 576.296427 280.168788 
L 578.498628 280.117669 
L 580.700829 282.218643 
L 582.90303 277.385299 
L 585.105231 273.610684 
L 587.307432 275.883134 
L 589.509633 274.989696 
L 591.711834 277.907763 
L 593.914035 281.789307 
L 596.116236 283.611701 
L 600.520638 277.528874 
L 604.92504 278.977253 
L 607.127241 283.499828 
L 609.329442 279.124472 
L 611.531643 276.811148 
L 611.531643 276.811148 
" style="fill:none;stroke:#ff7f0e;stroke-linecap:square;stroke-width:1.5;"/>
   </g>
   <g id="line2d_46">
    <path clip-path="url(#pd193a49b10)" d="M 58.779199 283.718521 
L 60.9814 283.421517 
L 63.183601 280.768023 
L 65.385802 280.45644 
L 67.588003 279.441851 
L 69.790204 279.772937 
L 71.992405 281.67498 
L 74.194606 290.684628 
L 76.396807 282.908712 
L 78.599008 286.224269 
L 80.801209 279.392213 
L 83.00341 281.218233 
L 85.205611 280.775025 
L 87.407812 278.227918 
L 89.610013 278.426756 
L 91.812214 279.183173 
L 94.014415 274.600504 
L 96.216615 274.894952 
L 98.418816 279.920547 
L 100.621017 282.45876 
L 102.823218 283.795672 
L 105.025419 276.88122 
L 107.22762 281.216265 
L 109.429821 283.207106 
L 111.632022 290.684921 
L 113.834223 289.12645 
L 116.036424 289.047477 
L 118.238625 283.829264 
L 120.440826 287.946338 
L 122.643027 283.882606 
L 124.845228 282.116309 
L 127.047429 283.947315 
L 129.24963 287.393998 
L 131.451831 283.796997 
L 133.654032 287.441629 
L 135.856233 278.015935 
L 138.058434 277.921698 
L 140.260635 283.298432 
L 142.462836 280.301857 
L 144.665037 282.265898 
L 146.867238 281.721823 
L 151.27164 281.086335 
L 155.676042 285.057921 
L 157.878243 279.761904 
L 160.080444 282.842844 
L 162.282645 280.43784 
L 164.484846 281.221041 
L 166.687047 281.481746 
L 168.889248 279.835679 
L 171.091449 283.142566 
L 173.29365 280.676204 
L 175.49585 279.757892 
L 177.698051 278.610022 
L 179.900252 279.067284 
L 182.102453 278.974986 
L 184.304654 275.130555 
L 186.506855 276.488629 
L 188.709056 278.081773 
L 190.911257 282.5789 
L 193.113458 283.266218 
L 195.315659 279.378796 
L 197.51786 284.981375 
L 199.720061 292.735718 
L 201.922262 298.744497 
L 204.124463 287.964491 
L 206.326664 290.351645 
L 208.528865 284.992211 
L 210.731066 282.665168 
L 212.933267 282.616956 
L 215.135468 286.522122 
L 217.337669 276.37449 
L 219.53987 270.202394 
L 221.742071 272.165278 
L 223.944272 284.452587 
L 226.146473 279.546685 
L 228.348674 279.604584 
L 230.550875 280.526611 
L 232.753076 280.152857 
L 234.955277 279.97885 
L 237.157478 285.79001 
L 239.359679 281.921016 
L 241.56188 293.707526 
L 243.764081 278.147881 
L 245.966282 281.840413 
L 248.168483 283.408311 
L 250.370684 283.468976 
L 252.572885 280.384714 
L 256.977286 276.594058 
L 259.179487 281.483824 
L 261.381688 287.391019 
L 263.583889 282.500475 
L 265.78609 279.983569 
L 267.988291 276.677041 
L 270.190492 276.429036 
L 272.392693 274.748472 
L 274.594894 281.932951 
L 276.797095 286.70961 
L 278.999296 292.455631 
L 281.201497 281.512581 
L 283.403698 284.560891 
L 285.605899 279.342333 
L 287.8081 278.198721 
L 290.010301 278.176605 
L 292.212502 281.638265 
L 294.414703 278.868358 
L 296.616904 279.294009 
L 298.819105 277.405034 
L 301.021306 276.130881 
L 303.223507 276.144055 
L 305.425708 273.407371 
L 307.627909 273.081819 
L 309.83011 271.629419 
L 312.032311 271.627542 
L 314.234512 267.212404 
L 316.436713 266.316359 
L 318.638914 263.126221 
L 320.841115 260.908424 
L 323.043316 257.543392 
L 325.245517 253.416605 
L 327.447718 248.639 
L 329.649919 241.75332 
L 331.85212 229.855807 
L 334.05432 214.915496 
L 336.256521 211.690345 
L 338.458722 217.694892 
L 340.660923 237.08151 
L 342.863124 245.672693 
L 345.065325 251.344914 
L 347.267526 256.327777 
L 349.469727 259.369574 
L 351.671928 262.771037 
L 353.874129 265.647948 
L 356.07633 267.986771 
L 358.278531 269.438429 
L 360.480732 272.871213 
L 362.682933 271.285765 
L 364.885134 282.304166 
L 367.087335 270.053859 
L 369.289536 281.547767 
L 371.491737 277.704886 
L 373.693938 285.168035 
L 375.896139 280.577968 
L 378.09834 279.609318 
L 380.300541 280.627931 
L 382.502742 285.495645 
L 384.704943 279.819466 
L 386.907144 283.077347 
L 391.311546 293.142325 
L 393.513747 280.894874 
L 395.715948 279.637348 
L 397.918149 285.582736 
L 400.12035 286.771437 
L 402.322551 284.069737 
L 404.524752 279.636762 
L 406.726953 284.275665 
L 408.929154 279.717154 
L 411.131355 281.339364 
L 413.333556 282.706286 
L 415.535756 285.275981 
L 417.737957 280.951699 
L 419.940158 284.466301 
L 422.142359 283.693252 
L 424.34456 294.5511 
L 426.546761 288.601505 
L 428.748962 296.893352 
L 430.951163 282.791728 
L 433.153364 280.62743 
L 435.355565 290.58286 
L 437.557766 287.718827 
L 439.759967 288.148606 
L 441.962168 283.493616 
L 444.164369 286.444554 
L 446.36657 288.085673 
L 448.568771 279.700864 
L 450.770972 278.778097 
L 452.973173 294.618208 
L 455.175374 286.723609 
L 457.377575 283.302829 
L 459.579776 277.87372 
L 461.781977 280.596969 
L 463.984178 281.988347 
L 466.186379 286.946302 
L 468.38858 285.964954 
L 470.590781 288.537743 
L 472.792982 287.196196 
L 474.995183 292.378165 
L 477.197384 288.250929 
L 479.399585 278.206278 
L 481.601786 281.567245 
L 483.803987 281.165433 
L 486.006188 278.796627 
L 488.208389 281.971849 
L 490.41059 291.302045 
L 492.612791 284.33548 
L 494.814991 283.712281 
L 497.017192 282.103354 
L 499.219393 287.062526 
L 501.421594 286.671972 
L 503.623795 288.491102 
L 505.825996 281.218745 
L 510.230398 275.309291 
L 512.432599 276.050588 
L 514.6348 280.752044 
L 516.837001 280.551623 
L 519.039202 285.332266 
L 521.241403 288.169731 
L 523.443604 285.108611 
L 525.645805 283.133623 
L 527.848006 283.734796 
L 530.050207 283.149297 
L 532.252408 276.393768 
L 534.454609 274.461044 
L 536.65681 283.231688 
L 538.859011 283.405958 
L 541.061212 292.090148 
L 543.263413 287.274852 
L 545.465614 283.559459 
L 547.667815 289.152463 
L 549.870016 286.922508 
L 552.072217 284.941982 
L 554.274418 280.597756 
L 556.476619 282.976443 
L 558.67882 280.791803 
L 560.881021 280.093264 
L 563.083222 273.561502 
L 565.285423 273.372354 
L 567.487624 287.46769 
L 569.689825 284.951438 
L 571.892026 294.119269 
L 574.094226 281.404117 
L 578.498628 282.009749 
L 580.700829 284.796445 
L 582.90303 278.927958 
L 585.105231 275.674706 
L 587.307432 277.890446 
L 589.509633 279.219185 
L 591.711834 281.066659 
L 593.914035 283.083547 
L 596.116236 286.715086 
L 598.318437 280.489887 
L 600.520638 278.215535 
L 602.722839 281.643564 
L 604.92504 283.494964 
L 607.127241 289.701951 
L 609.329442 283.210846 
L 611.531643 280.462269 
L 611.531643 280.462269 
" style="fill:none;stroke:#2ca02c;stroke-linecap:square;stroke-width:1.5;"/>
   </g>
   <g id="line2d_47">
    <path clip-path="url(#pd193a49b10)" d="M 58.779199 286.388343 
L 60.9814 284.877201 
L 65.385802 283.138746 
L 67.588003 282.127818 
L 69.790204 281.529365 
L 71.992405 281.605043 
L 74.194606 290.803019 
L 76.396807 289.40178 
L 78.599008 291.439626 
L 80.801209 290.343147 
L 83.00341 293.331245 
L 85.205611 283.880797 
L 87.407812 281.135107 
L 89.610013 283.061851 
L 91.812214 281.210814 
L 94.014415 284.779523 
L 96.216615 282.36956 
L 98.418816 290.012323 
L 100.621017 282.077286 
L 102.823218 283.541959 
L 105.025419 288.399236 
L 107.22762 292.546972 
L 109.429821 285.315664 
L 111.632022 284.305098 
L 113.834223 284.049155 
L 116.036424 287.86875 
L 118.238625 283.347596 
L 120.440826 287.714781 
L 122.643027 290.801706 
L 124.845228 284.126141 
L 127.047429 281.341173 
L 129.24963 282.987138 
L 131.451831 281.36306 
L 135.856233 284.606564 
L 138.058434 290.838215 
L 140.260635 285.405704 
L 144.665037 288.538987 
L 146.867238 284.652078 
L 149.069439 289.089438 
L 151.27164 285.560977 
L 153.473841 289.393935 
L 155.676042 286.088768 
L 157.878243 284.034021 
L 160.080444 282.820517 
L 162.282645 283.222373 
L 164.484846 285.160002 
L 166.687047 293.136746 
L 168.889248 286.290201 
L 171.091449 283.207511 
L 173.29365 283.963246 
L 175.49585 290.768173 
L 177.698051 293.267013 
L 179.900252 284.831546 
L 182.102453 280.492783 
L 184.304654 279.920113 
L 186.506855 285.702598 
L 188.709056 283.531486 
L 190.911257 279.267606 
L 193.113458 283.182542 
L 195.315659 302.039184 
L 197.51786 289.529618 
L 199.720061 291.468647 
L 201.922262 286.687558 
L 204.124463 287.136828 
L 206.326664 288.241142 
L 208.528865 289.977611 
L 210.731066 286.608947 
L 212.933267 291.445127 
L 215.135468 287.643776 
L 217.337669 289.804292 
L 219.53987 288.852746 
L 221.742071 287.641546 
L 223.944272 291.022632 
L 226.146473 285.451502 
L 228.348674 284.397022 
L 230.550875 297.032577 
L 232.753076 284.762904 
L 234.955277 281.818193 
L 237.157478 284.481649 
L 239.359679 283.254603 
L 241.56188 283.026673 
L 243.764081 284.0745 
L 245.966282 281.897541 
L 248.168483 283.708696 
L 250.370684 287.225808 
L 252.572885 289.361164 
L 256.977286 290.974025 
L 259.179487 295.094603 
L 261.381688 287.287026 
L 263.583889 284.347827 
L 265.78609 283.709817 
L 267.988291 282.137871 
L 270.190492 279.806573 
L 272.392693 279.750198 
L 274.594894 282.413838 
L 276.797095 297.559292 
L 278.999296 284.593332 
L 281.201497 284.158695 
L 283.403698 289.832647 
L 285.605899 279.886598 
L 287.8081 286.145336 
L 290.010301 285.186404 
L 292.212502 285.819678 
L 294.414703 292.315395 
L 296.616904 282.395732 
L 298.819105 279.746854 
L 301.021306 280.156079 
L 303.223507 283.127597 
L 305.425708 278.593529 
L 307.627909 281.757374 
L 309.83011 285.564239 
L 312.032311 290.319998 
L 314.234512 291.069488 
L 316.436713 281.811177 
L 318.638914 287.467636 
L 320.841115 280.990053 
L 323.043316 280.522674 
L 325.245517 275.712709 
L 327.447718 270.612305 
L 329.649919 263.894634 
L 331.85212 251.942071 
L 334.05432 237.01875 
L 336.256521 233.798007 
L 338.458722 239.80157 
L 340.660923 259.23078 
L 342.863124 267.641431 
L 345.065325 273.633093 
L 347.267526 278.090596 
L 349.469727 279.513471 
L 351.671928 282.351516 
L 353.874129 298.100127 
L 356.07633 288.051087 
L 358.278531 282.014417 
L 360.480732 281.70114 
L 362.682933 282.160124 
L 364.885134 280.265363 
L 367.087335 282.253223 
L 369.289536 286.023517 
L 371.491737 290.556925 
L 373.693938 284.374386 
L 375.896139 285.604744 
L 378.09834 283.80605 
L 380.300541 282.528272 
L 382.502742 287.910308 
L 384.704943 282.826037 
L 386.907144 281.748018 
L 389.109345 285.140195 
L 391.311546 279.361109 
L 393.513747 279.924228 
L 395.715948 281.331167 
L 397.918149 281.221622 
L 400.12035 290.936811 
L 402.322551 287.431837 
L 404.524752 287.482806 
L 406.726953 288.515185 
L 408.929154 296.359985 
L 411.131355 292.352464 
L 413.333556 291.508049 
L 415.535756 285.107463 
L 417.737957 283.897214 
L 419.940158 285.206549 
L 422.142359 284.872702 
L 424.34456 286.218013 
L 426.546761 292.626921 
L 428.748962 288.60569 
L 430.951163 289.854838 
L 433.153364 292.868998 
L 435.355565 285.046918 
L 437.557766 282.223973 
L 439.759967 287.18595 
L 441.962168 286.477689 
L 444.164369 286.377976 
L 446.36657 285.921665 
L 450.770972 289.437266 
L 452.973173 289.819347 
L 455.175374 299.600863 
L 457.377575 284.500579 
L 459.579776 283.439349 
L 461.781977 286.155798 
L 463.984178 289.838493 
L 466.186379 290.382484 
L 468.38858 296.352283 
L 470.590781 289.17112 
L 472.792982 284.020143 
L 474.995183 284.958378 
L 477.197384 290.114399 
L 479.399585 284.517987 
L 481.601786 286.157773 
L 483.803987 288.019344 
L 486.006188 285.880867 
L 488.208389 283.190482 
L 490.41059 282.538978 
L 492.612791 282.075219 
L 494.814991 284.142059 
L 497.017192 281.809235 
L 499.219393 284.880751 
L 501.421594 286.972989 
L 503.623795 284.064026 
L 505.825996 284.218149 
L 508.028197 288.224197 
L 512.432599 282.637822 
L 514.6348 283.335234 
L 516.837001 284.695039 
L 519.039202 288.725513 
L 521.241403 284.673192 
L 523.443604 285.898413 
L 525.645805 290.726363 
L 527.848006 287.174218 
L 530.050207 285.039185 
L 532.252408 288.625701 
L 534.454609 287.616628 
L 536.65681 289.420996 
L 538.859011 284.762248 
L 541.061212 296.777539 
L 543.263413 287.020946 
L 545.465614 289.298052 
L 547.667815 296.463243 
L 549.870016 294.881149 
L 552.072217 285.016635 
L 554.274418 280.123124 
L 556.476619 281.479248 
L 558.67882 283.54754 
L 560.881021 282.158302 
L 563.083222 284.340474 
L 565.285423 287.344937 
L 567.487624 290.139541 
L 569.689825 292.61474 
L 571.892026 287.549179 
L 574.094226 285.6462 
L 576.296427 287.663085 
L 578.498628 290.212685 
L 580.700829 288.980912 
L 582.90303 288.762577 
L 585.105231 288.081758 
L 587.307432 282.844712 
L 589.509633 282.66741 
L 591.711834 284.536377 
L 593.914035 291.618986 
L 596.116236 289.104677 
L 598.318437 284.318025 
L 600.520638 287.081544 
L 604.92504 283.80628 
L 607.127241 286.213058 
L 609.329442 285.83726 
L 611.531643 283.493758 
L 611.531643 283.493758 
" style="fill:none;stroke:#d62728;stroke-linecap:square;stroke-width:1.5;"/>
   </g>
   <g id="patch_9">
    <path d="M 59.36058 318.04 
L 59.36058 200.04 
" style="fill:none;stroke:#000000;stroke-linecap:square;stroke-linejoin:miter;stroke-width:0.8;"/>
   </g>
   <g id="patch_10">
    <path d="M 611.03835 318.04 
L 611.03835 200.04 
" style="fill:none;stroke:#000000;stroke-linecap:square;stroke-linejoin:miter;stroke-width:0.8;"/>
   </g>
   <g id="patch_11">
    <path d="M 59.36058 318.04 
L 611.03835 318.04 
" style="fill:none;stroke:#000000;stroke-linecap:square;stroke-linejoin:miter;stroke-width:0.8;"/>
   </g>
   <g id="patch_12">
    <path d="M 59.36058 200.04 
L 611.03835 200.04 
" style="fill:none;stroke:#000000;stroke-linecap:square;stroke-linejoin:miter;stroke-width:0.8;"/>
   </g>
   <g id="text_30">
    <!-- Doppler spektrum av signal -->
    <g transform="translate(252.201653 194.04)scale(0.12 -0.12)">
     <defs>
      <path d="M 19.671875 64.796875 
L 19.671875 8.109375 
L 31.59375 8.109375 
Q 46.6875 8.109375 53.6875 14.9375 
Q 60.6875 21.78125 60.6875 36.53125 
Q 60.6875 51.171875 53.6875 57.984375 
Q 46.6875 64.796875 31.59375 64.796875 
z
M 9.8125 72.90625 
L 30.078125 72.90625 
Q 51.265625 72.90625 61.171875 64.09375 
Q 71.09375 55.28125 71.09375 36.53125 
Q 71.09375 17.671875 61.125 8.828125 
Q 51.171875 0 30.078125 0 
L 9.8125 0 
z
" id="DejaVuSans-68"/>
     </defs>
     <use xlink:href="#DejaVuSans-68"/>
     <use x="77.001953" xlink:href="#DejaVuSans-111"/>
     <use x="138.183594" xlink:href="#DejaVuSans-112"/>
     <use x="201.660156" xlink:href="#DejaVuSans-112"/>
     <use x="265.136719" xlink:href="#DejaVuSans-108"/>
     <use x="292.919922" xlink:href="#DejaVuSans-101"/>
     <use x="354.443359" xlink:href="#DejaVuSans-114"/>
     <use x="395.556641" xlink:href="#DejaVuSans-32"/>
     <use x="427.34375" xlink:href="#DejaVuSans-115"/>
     <use x="479.443359" xlink:href="#DejaVuSans-112"/>
     <use x="542.919922" xlink:href="#DejaVuSans-101"/>
     <use x="604.443359" xlink:href="#DejaVuSans-107"/>
     <use x="662.353516" xlink:href="#DejaVuSans-116"/>
     <use x="701.5625" xlink:href="#DejaVuSans-114"/>
     <use x="742.675781" xlink:href="#DejaVuSans-117"/>
     <use x="806.054688" xlink:href="#DejaVuSans-109"/>
     <use x="903.466797" xlink:href="#DejaVuSans-32"/>
     <use x="935.253906" xlink:href="#DejaVuSans-97"/>
     <use x="996.533203" xlink:href="#DejaVuSans-118"/>
     <use x="1055.712891" xlink:href="#DejaVuSans-32"/>
     <use x="1087.5" xlink:href="#DejaVuSans-115"/>
     <use x="1139.599609" xlink:href="#DejaVuSans-105"/>
     <use x="1167.382812" xlink:href="#DejaVuSans-103"/>
     <use x="1230.859375" xlink:href="#DejaVuSans-110"/>
     <use x="1294.238281" xlink:href="#DejaVuSans-97"/>
     <use x="1355.517578" xlink:href="#DejaVuSans-108"/>
    </g>
   </g>
   <g id="legend_2">
    <g id="patch_13">
     <path d="M 66.36058 289.89625 
L 118.043392 289.89625 
Q 120.043392 289.89625 120.043392 287.89625 
L 120.043392 230.18375 
Q 120.043392 228.18375 118.043392 228.18375 
L 66.36058 228.18375 
Q 64.36058 228.18375 64.36058 230.18375 
L 64.36058 287.89625 
Q 64.36058 289.89625 66.36058 289.89625 
z
" style="fill:#ffffff;opacity:0.8;stroke:#cccccc;stroke-linejoin:miter;"/>
    </g>
    <g id="line2d_48">
     <path d="M 68.36058 236.282188 
L 88.36058 236.282188 
" style="fill:none;stroke:#1f77b4;stroke-linecap:square;stroke-width:1.5;"/>
    </g>
    <g id="line2d_49"/>
    <g id="text_31">
     <!-- Ch1 -->
     <g transform="translate(96.36058 239.782188)scale(0.1 -0.1)">
      <use xlink:href="#DejaVuSans-67"/>
      <use x="69.824219" xlink:href="#DejaVuSans-104"/>
      <use x="133.203125" xlink:href="#DejaVuSans-49"/>
     </g>
    </g>
    <g id="line2d_50">
     <path d="M 68.36058 250.960313 
L 88.36058 250.960313 
" style="fill:none;stroke:#ff7f0e;stroke-linecap:square;stroke-width:1.5;"/>
    </g>
    <g id="line2d_51"/>
    <g id="text_32">
     <!-- Ch2 -->
     <g transform="translate(96.36058 254.460313)scale(0.1 -0.1)">
      <use xlink:href="#DejaVuSans-67"/>
      <use x="69.824219" xlink:href="#DejaVuSans-104"/>
      <use x="133.203125" xlink:href="#DejaVuSans-50"/>
     </g>
    </g>
    <g id="line2d_52">
     <path d="M 68.36058 265.638438 
L 88.36058 265.638438 
" style="fill:none;stroke:#2ca02c;stroke-linecap:square;stroke-width:1.5;"/>
    </g>
    <g id="line2d_53"/>
    <g id="text_33">
     <!-- Ch3 -->
     <g transform="translate(96.36058 269.138438)scale(0.1 -0.1)">
      <use xlink:href="#DejaVuSans-67"/>
      <use x="69.824219" xlink:href="#DejaVuSans-104"/>
      <use x="133.203125" xlink:href="#DejaVuSans-51"/>
     </g>
    </g>
    <g id="line2d_54">
     <path d="M 68.36058 280.316563 
L 88.36058 280.316563 
" style="fill:none;stroke:#d62728;stroke-linecap:square;stroke-width:1.5;"/>
    </g>
    <g id="line2d_55"/>
    <g id="text_34">
     <!-- Ch4 -->
     <g transform="translate(96.36058 283.816563)scale(0.1 -0.1)">
      <use xlink:href="#DejaVuSans-67"/>
      <use x="69.824219" xlink:href="#DejaVuSans-104"/>
      <use x="133.203125" xlink:href="#DejaVuSans-52"/>
     </g>
    </g>
   </g>
  </g>
 </g>
 <defs>
  <clipPath id="pc0abd1eea1">
   <rect height="118" width="551.67777" x="59.36058" y="25.44"/>
  </clipPath>
  <clipPath id="pd193a49b10">
   <rect height="118" width="551.67777" x="59.36058" y="200.04"/>
  </clipPath>
 </defs>
</svg>
